<svg xmlns="http://www.w3.org/2000/svg" width="544" height="666.78" viewBox="0 0 544 666.78"><g id="Hintergrund"><rect x="-4.56" y="-4.21" width="553.11" height="676.66" fill="#e93333"/></g><g id="Text"><rect x="19.91" y="16.49" width="252.09" height="126.21" fill="#fff" stroke="#e93333" stroke-miterlimit="10" stroke-width="11"/><rect x="272" y="16.49" width="252.09" height="126.21" fill="#fff" stroke="#e93333" stroke-miterlimit="10" stroke-width="11"/><path d="M290.94,79.69l48.45,48.45,48.45-48.45L339.39,31.24Z" fill="#fff"/><path d="M313.52,53.63,287.46,79.69l26.06,25.88,25.87,26.06,26.06-26.06,26.06-25.88L365.45,53.63,339.39,27.57Zm47.9,4,21.84,22-21.84,21.84-22,21.84-21.84-21.84L295.71,79.69l21.84-22,21.84-21.84Z" fill="red"/><path d="M339.58,48.68c-3.31,6.24.55,9.72-3.67,18.72-2.39-1.84-1.11-8.63-5.51-8.81a5.77,5.77,0,0,1,0,3.67c-.55,3.12-1.47,5.69.55,9.54-3.12-1.47-3.3-4.22-5.87-6.06.55,2.94-.74,9,2.75,14.87-3.12-.37-4.22-1.47-7.52-4.77,3.48,18.35,6.24,18.9,19.27,20A12.49,12.49,0,0,1,329.48,87c0-1.83-.18,1.65,6.24,1.84-4-6.43-2.93-5.14-2.57-8.81,1.84,2.38.37,2.75,5,4.59-1.47-4.78,2.38-7.9,1.47-13.4,1.1,2.38,4.77,2,4.58,13.4,3.12-3.49,3.31-1.1,4.78-4.78.18,2,1.1,4.59-3.12,9,1.1.36,2.93.55,5.69-1.47-2.76,3.3-.19,3.3-7.35,8.44,9,.18,14.87-5.5,14.69-17.8-.37,1.1-.55,3.3-5.33,3.85a12.69,12.69,0,0,0,2.21-13.76c-.92.73-2.21,4.4-5.33,5.32a11,11,0,0,0,1.11-5.87,12.63,12.63,0,0,0-2.21-8.26c-.73,5.51-.73,8.44-4.22,9.18.55-3.12.74-4.78-1.1-8.45C342.15,56.2,339.94,52.35,339.58,48.68ZM324.71,99v3.3h31.38V99Z" fill="#333"/><path d="M39.13,79.6l48.49,48.48,48.49-48.49Q111.85,55.36,87.62,31.11Z" fill="#fff"/><path d="M61.6,53.59l-26,26,26,26,26,26,26-26,26-26-26-26-26-26-26,26Zm47.92,4.11,21.89,21.89-21.9,21.9-21.9,21.9-21.88-21.9L43.84,79.59,65.73,57.7,87.62,35.81Z" fill="red"/><path d="M92.29,51.61s0,0,0,0-1.66,4.75-3.68,10.5S84.91,72.61,84.9,72.62s-.17,0-.16-.06S89.05,59.14,89.09,59a2.47,2.47,0,0,0-.39-.25c-.39-.24-.43-.26-.43-.23s-3.59,14-3.6,14a.56.56,0,0,1-.21,0,8.48,8.48,0,0,0-1-.21,8.3,8.3,0,0,0-1.41,0,5.94,5.94,0,0,0-3.59,1.83,6.74,6.74,0,0,0-1.57,2.63,1.21,1.21,0,0,1-.08.22s-.55-.39-1.22-.89l-1.22-.91a2.16,2.16,0,0,0,.15.31l.15.31,1,.7c1,.68,1,.7,1,.75s0,.08.31.4l.44.46.12.12.3,0,.31,0,.58.39.53.34-.51-.39a3.56,3.56,0,0,1-.43-.35l.89,0,.86,0,1.25.62,1.27.63s.32-.37.7-.84l.72-.86s0-.15-.3-.81L83.43,76l1,.1c.53.06,1,.1,1,.09s.08-.27.16-.58l.14-.58h1l.16,0L85.37,76.7l-1.52,1.66c-.06.08.53-.51,1.9-1.9l1.36-1.37h1L88,74.94c0-.07-.14-.2-.21-.28a.79.79,0,0,1-.11-.15s.19-.2.42-.44l.4-.42,0,.1c0,.06,0,.11,0,.12s0,0,.71-.3a5.63,5.63,0,0,1,.66-.28,4,4,0,0,1,.15.49,4.76,4.76,0,0,0,.15.49s2.11-1.68,2.17-1.75L93,71.46l.59-1.1s0-.07,0-.07-.45.36-1,.79l-.94.78h-.68c-.37,0-.7,0-.73,0s.32-.38,6.31-6.43C100.15,61.92,103,59,103,59l-.37-.37c-.34-.35-.37-.36-.39-.33s-2.93,3.18-6.47,7l-6.44,7-.51.36-.53.38s0,.06,0,.15.06.13,0,.16l-.82.9s0,0-.18-.12a7,7,0,0,0-.91-.74l-.17-.12,3.19-5.48c2.52-4.32,3.19-5.48,3.17-5.5l-.36-.23L92,61.91,91.9,62,89,67.69c-1.6,3.16-2.82,5.57-2.84,5.57s0,0,0-.1S87.91,68.39,90,62.67s3.73-10.4,3.72-10.41-1.25-.6-1.38-.65Zm-6.33,8-.18.45-.17.45-.34-.14-.35-.12s-.09.38-.18.83-.17.84-.18.86.07.06.35.19l.38.18.19.68c.1.37.18.67.19.67l.32-.45a10.64,10.64,0,0,1,1.35-1.59l0-.06-.29-1-.3-1H86Zm23.66,4.28,0,.05c0,.17-.6,1.88-.61,1.88s-.38,0-.83,0l-.82,0-.23.18-.24.18s-.22,1.41-.22,1.41l1.28.74s.24-.25.52-.55.51-.55.52-.55l1,.7,1,.69v-.26c0-.14,0-.7,0-1.25l0-1-.67-1.15c-.37-.63-.68-1.15-.69-1.15Zm-17.26.71,0,0-.24.33-.2.28-.13.65c-.07.35-.13.66-.13.67a2.41,2.41,0,0,0,.46.43l.46.39s.17-.18.35-.39l.32-.4.08-.36.09-.46,0-.1-.2-.54c-.11-.29-.2-.53-.21-.54a1,1,0,0,0-.16.16l-.15.16-.17-.16Zm10.61,1-8.51,6-8.49,6,8.51-5.27L103,67v-.72c0-.4,0-.72,0-.71Zm-1.68,4.68-.35.38-.35.39-.16.44c-.09.25-.17.45-.17.45l3,.36s-.45-.46-1-1Zm13.95.27s-6.75,1.74-15,3.87-15,3.89-15,3.89l30.35-6.88S115.25,70.51,115.24,70.51Zm-17.63,2-5,2.35-5,2.37s0,0,0,0L97.7,73.41s0-.19,0-.43a2.45,2.45,0,0,0,0-.42Zm21.68,1-16.44,2.79L86.41,79.17a.74.74,0,0,1-.24-.15l-.2-.16v1.33l-.52.35-.54.35-.49-.33c-.68-.49-.69-.49,0,0l.46.36s-.82.57-.84.57l-2.57-2.19-.11-.1-1,.82-1,.83-1.19-.31L77,80.23h.34l.61,0a12.9,12.9,0,0,0-1.43-.11L74.46,80l-1.75-.12v0c0-.06,0,0-.15,0s-.13,0-.47,0l-.44,0h-.09l-.09-.15-.08-.15-.59,0-.68,0H70l-.08.13-.07.13h-.09l-4-.27-4-.25h-.06l.2.22c.17.19.21.22.26.22l3.82.16,3.76.16a3.74,3.74,0,0,1-.18.33,1.39,1.39,0,0,0-.18.33s.26.19.55.4l.54.39.59.1.62.09a2.68,2.68,0,0,0,.2-.3L72,81h.76v-.07s0-.24,0-.45,0-.39,0-.4,3.74.14,3.84.15.05,0,.05.05a6,6,0,0,0,.17.71c0,.2,0,.2,0,.21L66.59,82.35,56.42,83.52a3.42,3.42,0,0,0,0,.46L66.59,82.6l10.24-1.38s0,0,.07.11.07.19.11.28a.84.84,0,0,1,.06.18l-7.64,1.68-7.67,1.71s0,0-.08.26a1,1,0,0,0,0,.26L77.1,81.89s.05,0,.08.1,0,.12,0,.12l-2.58.69-2.57.68,0,.27c0,.14,0,.26,0,.26l2.65-.87c2.67-.88,2.68-.88,2.69-.81s-1.87,1-4.16,2.26L69,86.84,69,87c0,.09,0,.19,0,.23l0,.06,4.12-2.42,4.16-2.45s.06,0,.17.21a6.91,6.91,0,0,0,.49.7c.07.09.07.1,0,.12l-4.87,3.88-4.82,3.86.34.34.37.35s.66-.58,2.88-2.62l2.87-2.62s0,.06,0,.12a.42.42,0,0,0,0,.12s.48.55.59.66.05,0,.38-.12l.34-.16.18.18.17.17.34-.21.35-.21.14-.45c.07-.24.13-.46.13-.47a1.27,1.27,0,0,0-.32-.22l-.31-.2h-1L77,84.7c.68-.63,1.24-1.13,1.24-1.13l.31.29c.16.17.38.37.47.45a5.88,5.88,0,0,0,3.89,1.33,5.67,5.67,0,0,0,3-1,5.21,5.21,0,0,0,1-.8l.22-.21,3.31,2.66L93.73,89l-.2-.46-.2-.46-3.07-2.24-3.07-2.25.06-.07s.12-.15.2-.25a1.92,1.92,0,0,1,.14-.16l4.12,3.21,4.16,3.25.07,0,.2-.2.19-.21S94.4,87.79,92,86.09,87.74,83,87.73,83s0,0,.07-.2a.71.71,0,0,1,.13-.16L91.82,85l3.88,2.36a3.37,3.37,0,0,0-.2-.44l-.22-.43-3.64-2-3.65-2,.13-.24c.06-.13.15-.3.18-.38l.06-.13,2.26.58,2.27.6a.93.93,0,0,1-.18.26L92,83l-.68-.11a1.61,1.61,0,0,0-.22.34l-.19.36.45.33.71.52.24.19,1.85.31c1,.18,1.85.31,1.85.31s0-.48,0-.78v-.11L95.8,84l-.31-.34-.37-.16a3.8,3.8,0,0,1-.38-.17l2.63.67,2.64.68h0s0-.37.11-.79.12-.77.11-.77l-5.89-.83-5.9-.83s0-.13.08-.27.09-.27.09-.28a1.81,1.81,0,0,0-.46-.19l-.45-.16-.09-.16c0-.09-.09-.16-.08-.17l5.66.26,5.65.27,0,0,0,0,1,.07,1,.06.06-.06.06-.06,7.23.34,7.23.33-.3-.23-.3-.23-6.81-.21-6.83-.22a5.17,5.17,0,0,1,.49-.6c.29-.32.52-.59.51-.59l-1.81-.81-1.83-.81s-.23.2-.5.46l-.48.46L97,79l-.7.24s.07.29.16.63.15.62.14.63l-4.54-.14-4.55-.14-.09-.13c-.08-.13-.1-.15-.56-.52l-.49-.38.09,0L102.94,77l16.37-2.23V73.6ZM73.1,76.3v0a1.73,1.73,0,0,0,.07.19l.06.14L76,78l2.72,1.3S77.46,78.6,76,77.82l-2.79-1.48C73.13,76.3,73.1,76.29,73.1,76.3Zm-2.38,1.59-.26.22a1.75,1.75,0,0,0-.24.23s8.08,1.28,8.09,1.26Zm7.65,1.72s0,0,0,0h0S78.39,79.61,78.37,79.61ZM71.66,80h.12L72,80s0,0,0,0-.18.07-.21,0l0-.07Zm26.68.23a1.32,1.32,0,0,1,.18.18l.16.18-.29,0-.71,0a3.06,3.06,0,0,1-.39,0l1-.3Zm-20,0h0s0,0,0,0Zm-13.22.52-.54.4-.53.39v.21c0,.21,0,.21,0,.22l2.92.27S65.12,80.8,65.09,80.79Zm3.52,3.39s1.06,1,1.08,1l.39-.15.37-.14v-.65h0l-1.69-.09c-.06,0-.1,0-.1,0Zm-3.9,2.7,0,0s-.08.29-.19.62l-.18.6.06.08,1.05,1.44a1.09,1.09,0,0,0,.08-.19c0-.1.11-.32.17-.48l.1-.28h.06l.34,0h.26l.2-.22.21-.22.11-.34c.06-.18.1-.33.1-.33l-1-.37a1.18,1.18,0,0,0-.16.18.79.79,0,0,1-.17.17s-.24-.14-.51-.32Z" fill="#333"/><path d="M161,62.58l-.94.81a3.25,3.25,0,0,0-2.28-.83c-2.86,0-3.95,3.36-3.95,6,0,2,.86,2.89,2.5,2.89a4.21,4.21,0,0,0,2.09-.54l.48-3.28H157V66.42h3.59l-.72,5.25a6.55,6.55,0,0,1-3.73,1c-2.37,0-3.88-1.45-3.88-4.33,0-3.17,1.65-7.08,5.53-7.08A4.35,4.35,0,0,1,161,62.58Z" fill="#333"/><path d="M162.29,72.53l1.55-11h1.5l-.65,4.61h4.61L170,61.5h1.51l-1.55,11H168.4l.72-5.17h-4.61l-.72,5.17Z" fill="#333"/><path d="M180.51,62.64l-.94.88a3.06,3.06,0,0,0-2.31-1c-1.24,0-2.25.64-2.25,1.79,0,.83.45,1.27,2.06,1.81s2.88,1.14,2.88,3c0,1.69-1.29,3.53-4.32,3.53a4.53,4.53,0,0,1-3.57-1.47l1-.9a3.35,3.35,0,0,0,2.64,1.12c1.64,0,2.72-.84,2.72-2.2,0-1-.51-1.4-2-1.93-1.87-.65-2.88-1.34-2.88-2.91s1.31-3.12,3.79-3.12A4.19,4.19,0,0,1,180.51,62.64Z" fill="#333"/><path d="M186,61.66c1.91,0,2.92,1.38,2.92,3.86,0,2.91-1,7.2-4.44,7.2-1.9,0-2.91-1.37-2.91-3.85C181.6,66,182.62,61.66,186,61.66ZM186,62.83c-2.11,0-2.89,3.67-2.89,6.31,0,1.73.53,2.41,1.49,2.41,2.11,0,2.89-3.68,2.89-6.3C187.47,63.52,186.94,62.83,186,62.83Z" fill="#333"/><path d="M193.65,72.53h-1.48l1.29-9-2.68,1.52-.49-1.19,3.57-2h1.29Z" fill="#333"/><path d="M159.76,83.6h-4.5v3.24h3.92v1.91h-3.92v3.44h4.82v1.94h-7.47V81.67H160Z" fill="#333"/><path d="M170,94.13h-2.94l-1.82-3.69-1.78,3.69h-2.81l3.14-5L161,84.59h2.88l1.49,3.17,1.46-3.17h2.74L166.88,89Z" fill="#333"/><path d="M179.83,89.34c0,2.92-1.41,5.08-3.78,5.08a3,3,0,0,1-2.38-1V97.8l-2.56.29V84.59h2.25l.15,1.1a3.42,3.42,0,0,1,2.75-1.39C178.75,84.3,179.83,86.26,179.83,89.34Zm-2.67,0c0-2.4-.63-3.17-1.67-3.17a2.2,2.2,0,0,0-1.82,1.24v4.14a1.86,1.86,0,0,0,1.62.94C176.46,92.51,177.16,91.59,177.16,89.36Z" fill="#333"/><path d="M181.62,91.83v-11l2.56-.29V91.75c0,.42.15.63.52.63a1.16,1.16,0,0,0,.51-.1l.52,1.81a4,4,0,0,1-1.64.33A2.31,2.31,0,0,1,181.62,91.83Z" fill="#333"/><path d="M195.61,89.36c0,3-1.71,5.06-4.57,5.06s-4.57-1.89-4.57-5.06,1.71-5.06,4.59-5.06S195.61,86.19,195.61,89.36Zm-6.48,0c0,2.2.65,3.15,1.91,3.15s1.91-1,1.91-3.15-.65-3.15-1.89-3.15S189.13,87.18,189.13,89.36Z" fill="#333"/><path d="M204.18,85.45l-1,1.46a4.4,4.4,0,0,0-2.38-.76c-.85,0-1.31.35-1.31.87s.32.81,2,1.3c1.9.52,3,1.31,3,3,0,2-1.85,3.1-4.12,3.1A5.65,5.65,0,0,1,196.49,93l1.26-1.4a4.18,4.18,0,0,0,2.56.93c.95,0,1.57-.39,1.57-1s-.35-1-2.11-1.44c-1.93-.54-2.83-1.5-2.83-2.94,0-1.62,1.48-2.84,3.78-2.84A5.43,5.43,0,0,1,204.18,85.45Z" fill="#333"/><path d="M209,81.17a1.49,1.49,0,0,1-1.57,1.49,1.5,1.5,0,1,1,0-3A1.49,1.49,0,0,1,209,81.17Zm-.29,13H206.1V84.59h2.56Z" fill="#333"/><path d="M216,94.13h-3l-3.11-9.54h2.77l1.89,7.54,1.93-7.54h2.62Z" fill="#333"/><path d="M412.88,51.58l-.94.81a3.24,3.24,0,0,0-2.27-.83c-2.87,0-4,3.36-4,6,0,2.05.87,2.89,2.5,2.89a4.27,4.27,0,0,0,2.1-.54l.48-3.28h-1.92V55.42h3.58l-.72,5.25a6.52,6.52,0,0,1-3.73,1c-2.37,0-3.87-1.45-3.87-4.33,0-3.17,1.65-7.08,5.52-7.08A4.33,4.33,0,0,1,412.88,51.58Z" fill="#333"/><path d="M414.16,61.53l1.55-11h1.51l-.66,4.61h4.61l.66-4.61h1.5l-1.55,11h-1.51l.73-5.17h-4.62l-.71,5.17Z" fill="#333"/><path d="M432.39,51.64l-.95.88a3,3,0,0,0-2.3-1c-1.25,0-2.26.64-2.26,1.79,0,.83.45,1.27,2.07,1.81s2.88,1.14,2.88,3c0,1.69-1.3,3.53-4.33,3.53a4.49,4.49,0,0,1-3.56-1.47l1-.9a3.32,3.32,0,0,0,2.64,1.12c1.63,0,2.72-.84,2.72-2.2,0-1-.51-1.4-2-1.93-1.88-.65-2.89-1.34-2.89-2.91s1.32-3.12,3.8-3.12A4.2,4.2,0,0,1,432.39,51.64Z" fill="#333"/><path d="M437.91,50.66c1.9,0,2.91,1.38,2.91,3.86,0,2.91-1,7.2-4.44,7.2-1.9,0-2.91-1.37-2.91-3.85C433.47,55,434.5,50.66,437.91,50.66Zm-.05,1.17c-2.11,0-2.9,3.67-2.9,6.31,0,1.73.53,2.41,1.49,2.41,2.11,0,2.9-3.68,2.9-6.3C439.35,52.52,438.82,51.83,437.86,51.83Z" fill="#333"/><path d="M448.61,53.35c0,1.68-1,3.07-5.52,7l4.75,0-.35,1.23h-6.26l.16-1.2c4.91-4.53,5.7-5.46,5.7-6.93a1.39,1.39,0,0,0-1.52-1.52,3.11,3.11,0,0,0-2.37,1.2l-.93-.85a4.56,4.56,0,0,1,3.41-1.57A2.65,2.65,0,0,1,448.61,53.35Z" fill="#333"/><path d="M407.13,81h4.93l-.29,2.12h-7.29V70.67h2.65Z" fill="#333"/><path d="M421.15,79.13h-6c.18,1.84,1.05,2.38,2.27,2.38a3.82,3.82,0,0,0,2.32-.83l1.07,1.44a5.63,5.63,0,0,1-3.62,1.3c-3.06,0-4.67-2-4.67-5s1.55-5.11,4.34-5.11,4.31,1.8,4.31,4.84C421.21,78.47,421.17,78.86,421.15,79.13Zm-2.48-1.71c0-1.44-.49-2.37-1.71-2.37-1,0-1.62.66-1.77,2.48h3.48Z" fill="#333"/><path d="M425.88,70.17a1.56,1.56,0,1,1-1.56-1.5A1.48,1.48,0,0,1,425.88,70.17Zm-.28,13H423V73.59h2.56Z" fill="#333"/><path d="M435.25,74.45,434.13,76a2.93,2.93,0,0,0-1.87-.68c-1.28,0-2,.92-2,3.13s.81,3,2,3a3.23,3.23,0,0,0,1.89-.67l1.12,1.6a4.83,4.83,0,0,1-3.14,1.12c-2.84,0-4.59-2-4.59-5s1.77-5.13,4.56-5.13A4.6,4.6,0,0,1,435.25,74.45Z" fill="#333"/><path d="M444.68,76.18v6.95h-2.56V76.61c0-1.1-.43-1.4-1.06-1.4a2.3,2.3,0,0,0-1.84,1.31v6.61h-2.55V69.79l2.55-.27v5.17A3.46,3.46,0,0,1,442,73.3,2.56,2.56,0,0,1,444.68,76.18Z" fill="#333"/><path d="M452.76,82.68a4.49,4.49,0,0,1-2.49.74c-2,0-3-1.15-3-3.28V75.39h-1.43v-1.8h1.43V71.5l2.55-.31v2.4H452l-.25,1.8h-2v4.7c0,.93.31,1.29,1,1.29a2.2,2.2,0,0,0,1.08-.32Z" fill="#333"/><path d="M412.44,100.73h-6c.18,1.84,1,2.38,2.27,2.38a3.84,3.84,0,0,0,2.32-.83l1.06,1.44a5.58,5.58,0,0,1-3.61,1.3c-3.07,0-4.67-2-4.67-5s1.55-5.11,4.34-5.11,4.3,1.8,4.3,4.84C412.49,100.07,412.46,100.46,412.44,100.73ZM410,99c0-1.44-.49-2.37-1.71-2.37-1,0-1.63.66-1.77,2.48H410Z" fill="#333"/><path d="M422.34,97.78v7h-2.56V98.21c0-1.09-.41-1.4-1-1.4s-1.32.48-1.86,1.33v6.59h-2.55V95.19h2.23l.2,1.2a3.56,3.56,0,0,1,2.9-1.49A2.56,2.56,0,0,1,422.34,97.78Z" fill="#333"/><path d="M430.42,104.28a4.48,4.48,0,0,1-2.48.74c-2,0-3-1.15-3-3.28V97h-1.42v-1.8H425V93.1l2.55-.31v2.4h2.2l-.25,1.8H427.5v4.7c0,.93.31,1.3,1,1.3a2.23,2.23,0,0,0,1.08-.33Z" fill="#333"/><path d="M438,97l-4.48,5.74h4.57l-.25,2h-7.26v-1.84l4.48-5.74H431v-2h7Z" fill="#333"/><path d="M447.4,104.73h-2.22l-.12-1.28a3.23,3.23,0,0,1-2.9,1.57c-1.77,0-2.67-1.14-2.67-3V95.19h2.56v6.53c0,1,.34,1.39,1,1.39a2.12,2.12,0,0,0,1.75-1.24V95.19h2.56ZM442.75,91.8a1.35,1.35,0,1,1-1.35-1.33A1.33,1.33,0,0,1,442.75,91.8Zm4.09,0a1.35,1.35,0,0,1-1.37,1.34,1.34,1.34,0,1,1,1.37-1.34Z" fill="#333"/><path d="M457.87,97.78v7h-2.55V98.21c0-1.09-.42-1.4-1.05-1.4s-1.31.48-1.85,1.33v6.59h-2.56V95.19h2.23l.2,1.2a3.57,3.57,0,0,1,2.9-1.49A2.56,2.56,0,0,1,457.87,97.78Z" fill="#333"/><path d="M468.42,91.39v13.34h-2.25l-.15-1.17a3.19,3.19,0,0,1-2.73,1.46c-2.4,0-3.62-2-3.62-5.06s1.51-5.06,3.87-5.06a3.29,3.29,0,0,1,2.32.95V91.1ZM465.86,102V97.69a2.07,2.07,0,0,0-1.65-.9c-1.12,0-1.88.94-1.88,3.17,0,2.39.69,3.15,1.71,3.15A2.11,2.11,0,0,0,465.86,102Z" fill="#333"/><path d="M470.77,102.43v-11l2.56-.29v11.25c0,.42.15.64.52.64a1.16,1.16,0,0,0,.51-.11l.52,1.82a4.19,4.19,0,0,1-1.64.32A2.31,2.31,0,0,1,470.77,102.43Z" fill="#333"/><path d="M479.09,91.77a1.56,1.56,0,1,1-1.56-1.5A1.49,1.49,0,0,1,479.09,91.77Zm-.29,13h-2.55V95.19h2.55Z" fill="#333"/><path d="M488.45,96.05l-1.11,1.52a2.92,2.92,0,0,0-1.88-.69c-1.27,0-2,.92-2,3.13s.81,3,2,3a3.25,3.25,0,0,0,1.89-.67l1.11,1.6a4.73,4.73,0,0,1-3.13,1.12c-2.85,0-4.59-1.94-4.59-5s1.76-5.13,4.55-5.13A4.6,4.6,0,0,1,488.45,96.05Z" fill="#333"/><path d="M497.88,97.78v7h-2.55V98.21c0-1.09-.43-1.4-1.06-1.4a2.3,2.3,0,0,0-1.84,1.31v6.61h-2.56V91.39l2.56-.27v5.17a3.45,3.45,0,0,1,2.77-1.39A2.56,2.56,0,0,1,497.88,97.78Z" fill="#333"/><rect x="19.91" y="142.71" width="252.09" height="126.21" fill="#fff" stroke="#e93333" stroke-miterlimit="10" stroke-width="11"/><rect x="272" y="142.71" width="252.09" height="126.21" fill="#fff" stroke="#e93333" stroke-miterlimit="10" stroke-width="11"/><path d="M161,167.79l-.94.81a3.25,3.25,0,0,0-2.28-.83c-2.86,0-3.95,3.36-3.95,6,0,2.05.86,2.9,2.5,2.9a4.12,4.12,0,0,0,2.09-.55l.48-3.28H157v-1.23h3.59l-.72,5.25a6.55,6.55,0,0,1-3.73,1.06c-2.37,0-3.88-1.46-3.88-4.34,0-3.17,1.65-7.08,5.53-7.08A4.35,4.35,0,0,1,161,167.79Z" fill="#333"/><path d="M162.29,177.74l1.55-11h1.5l-.65,4.61h4.61l.65-4.61h1.51l-1.55,11H168.4l.72-5.17h-4.61l-.72,5.17Z" fill="#333"/><path d="M180.51,167.85l-.94.88a3.06,3.06,0,0,0-2.31-1c-1.24,0-2.25.64-2.25,1.79,0,.84.45,1.27,2.06,1.81s2.88,1.14,2.88,3c0,1.69-1.29,3.54-4.32,3.54a4.54,4.54,0,0,1-3.57-1.48l1-.89a3.35,3.35,0,0,0,2.64,1.12c1.64,0,2.72-.85,2.72-2.21,0-1-.51-1.4-2-1.92-1.87-.66-2.88-1.35-2.88-2.92s1.31-3.12,3.79-3.12A4.19,4.19,0,0,1,180.51,167.85Z" fill="#333"/><path d="M186,166.88c1.91,0,2.92,1.37,2.92,3.85,0,2.92-1,7.21-4.44,7.21-1.9,0-2.91-1.38-2.91-3.86C181.6,171.16,182.62,166.88,186,166.88ZM186,168c-2.11,0-2.89,3.67-2.89,6.31,0,1.73.53,2.42,1.49,2.42,2.11,0,2.89-3.69,2.89-6.31C187.47,168.73,186.94,168,186,168Z" fill="#333"/><path d="M196.64,169.4a2.76,2.76,0,0,1-2.43,2.68,2.1,2.1,0,0,1,2,2.21,3.76,3.76,0,0,1-4,3.65,3.48,3.48,0,0,1-3-1.48l1-.8a2.45,2.45,0,0,0,2.13,1.07,2.43,2.43,0,0,0,2.48-2.62c0-1.07-.72-1.39-1.86-1.39h-.83l.34-1.14h.51a2.05,2.05,0,0,0,2.24-2.11,1.32,1.32,0,0,0-1.49-1.41,3.49,3.49,0,0,0-2.35,1l-.72-.93a4.82,4.82,0,0,1,3.18-1.24A2.53,2.53,0,0,1,196.64,169.4Z" fill="#333"/><path d="M163.05,193.11c0,4.09-2.1,6.52-5.53,6.52s-5.54-2.36-5.54-6.52,2.12-6.52,5.54-6.52S163.05,188.94,163.05,193.11Zm-8.28,0c0,3.26,1,4.54,2.75,4.54s2.74-1.28,2.74-4.54-.95-4.53-2.74-4.53S154.77,189.85,154.77,193.11Z" fill="#333"/><path d="M172.86,199.34h-2.93l-1.82-3.69-1.78,3.69h-2.81l3.13-5-2.81-4.52h2.88l1.5,3.17,1.45-3.17h2.74l-2.68,4.43Z" fill="#333"/><path d="M176.8,186.38a1.56,1.56,0,1,1-1.56-1.5A1.48,1.48,0,0,1,176.8,186.38Zm-.29,13H174V189.8h2.55Z" fill="#333"/><path d="M187.19,186v13.34h-2.25l-.15-1.17a3.19,3.19,0,0,1-2.73,1.46c-2.4,0-3.62-2-3.62-5.06s1.51-5.06,3.87-5.06a3.25,3.25,0,0,1,2.32,1v-4.76Zm-2.56,10.57V192.3a2.07,2.07,0,0,0-1.65-.9c-1.12,0-1.88.94-1.88,3.17,0,2.4.69,3.15,1.71,3.15A2.09,2.09,0,0,0,184.63,196.57Z" fill="#333"/><path d="M192.5,186.38a1.48,1.48,0,0,1-1.57,1.49,1.5,1.5,0,1,1,0-3A1.49,1.49,0,0,1,192.5,186.38Zm-.29,13h-2.56V189.8h2.56Z" fill="#333"/><path d="M202.72,195.35h-6c.18,1.83,1.05,2.37,2.27,2.37a3.82,3.82,0,0,0,2.32-.83l1.07,1.44a5.63,5.63,0,0,1-3.62,1.3c-3.06,0-4.67-2-4.67-5s1.55-5.11,4.34-5.11,4.31,1.8,4.31,4.85C202.78,194.68,202.74,195.08,202.72,195.35Zm-2.48-1.72c0-1.44-.49-2.37-1.71-2.37-1,0-1.62.66-1.77,2.48h3.48Z" fill="#333"/><path d="M210.5,189.67l-.42,2.47a3.51,3.51,0,0,0-.86-.13c-1.17,0-1.73.89-2.05,2.45v4.88h-2.56V189.8h2.23l.22,1.85a2.74,2.74,0,0,1,2.48-2.12A3.32,3.32,0,0,1,210.5,189.67Z" fill="#333"/><path d="M219.43,195.35h-6c.18,1.83,1,2.37,2.27,2.37a3.84,3.84,0,0,0,2.32-.83l1.06,1.44a5.61,5.61,0,0,1-3.62,1.3c-3.06,0-4.66-2-4.66-5s1.55-5.11,4.34-5.11,4.3,1.8,4.3,4.85C219.48,194.68,219.44,195.08,219.43,195.35Zm-2.49-1.72c0-1.44-.48-2.37-1.71-2.37-1,0-1.62.66-1.76,2.48h3.47Z" fill="#333"/><path d="M229.33,192.39v7h-2.56v-6.51c0-1.1-.41-1.41-1-1.41s-1.32.49-1.86,1.33v6.59h-2.56V189.8h2.24l.2,1.21a3.53,3.53,0,0,1,2.89-1.5A2.57,2.57,0,0,1,229.33,192.39Z" fill="#333"/><path d="M239.87,186v13.34h-2.25l-.14-1.17a3.22,3.22,0,0,1-2.74,1.46c-2.39,0-3.62-2-3.62-5.06s1.52-5.06,3.88-5.06a3.27,3.27,0,0,1,2.32,1v-4.76Zm-2.55,10.57V192.3a2.09,2.09,0,0,0-1.66-.9c-1.12,0-1.87.94-1.87,3.17,0,2.4.68,3.15,1.71,3.15A2.12,2.12,0,0,0,237.32,196.57Z" fill="#333"/><path d="M160.31,220.94H158.1l-.13-1.27a3.21,3.21,0,0,1-2.89,1.56c-1.77,0-2.67-1.13-2.67-3V211.4H155v6.54c0,1,.34,1.38,1,1.38a2.12,2.12,0,0,0,1.75-1.24V211.4h2.55Z" fill="#333"/><path d="M170.79,214v6.95h-2.56v-6.51c0-1.1-.41-1.41-1-1.41s-1.31.49-1.85,1.33v6.59h-2.56V211.4H165l.2,1.21a3.55,3.55,0,0,1,2.9-1.5A2.56,2.56,0,0,1,170.79,214Z" fill="#333"/><path d="M181.34,207.6v13.34h-2.25l-.15-1.17a3.19,3.19,0,0,1-2.73,1.46c-2.4,0-3.62-2-3.62-5.06s1.51-5.06,3.87-5.06a3.25,3.25,0,0,1,2.32,1v-4.76Zm-2.56,10.57V213.9a2.07,2.07,0,0,0-1.65-.9c-1.12,0-1.88.94-1.88,3.17,0,2.4.69,3.15,1.71,3.15A2.09,2.09,0,0,0,178.78,218.17Z" fill="#333"/><path d="M196.91,216.17c0,3-1.42,5.06-3.8,5.06a3.08,3.08,0,0,1-2.5-1.24l-.15.95h-2.27V207.6l2.56-.29v5.12a3.21,3.21,0,0,1,2.61-1.32C195.61,211.11,196.91,213,196.91,216.17Zm-2.67,0c0-2.48-.72-3.17-1.72-3.17a2.11,2.11,0,0,0-1.77,1.25v4.06a1.93,1.93,0,0,0,1.64,1C193.49,219.34,194.24,218.5,194.24,216.17Z" fill="#333"/><path d="M204.7,211.27l-.41,2.47a3.58,3.58,0,0,0-.87-.12c-1.17,0-1.72.88-2,2.44v4.88h-2.56V211.4h2.24l.21,1.85a2.74,2.74,0,0,1,2.49-2.12A3.26,3.26,0,0,1,204.7,211.27Z" fill="#333"/><path d="M213.47,219.5l-.54,1.7a2.32,2.32,0,0,1-2.2-1.39,3.26,3.26,0,0,1-2.86,1.42,2.86,2.86,0,0,1-3.1-2.95c0-2.09,1.59-3.22,4.4-3.22h1.09v-.47c0-1.19-.5-1.57-1.69-1.57a8.42,8.42,0,0,0-2.52.51l-.59-1.72a10,10,0,0,1,3.52-.7c2.65,0,3.8,1.17,3.8,3.33v3.86C212.78,219.07,213,219.34,213.47,219.5Zm-3.21-1.17v-1.82h-.82c-1.41,0-2.09.51-2.09,1.55a1.16,1.16,0,0,0,1.24,1.33A1.84,1.84,0,0,0,210.26,218.33Z" fill="#333"/><path d="M223.31,214v6.95h-2.55v-6.51c0-1.1-.42-1.41-1-1.41s-1.31.49-1.85,1.33v6.59H215.3V211.4h2.24l.19,1.21a3.55,3.55,0,0,1,2.9-1.5A2.56,2.56,0,0,1,223.31,214Z" fill="#333"/><path d="M233.86,207.6v13.34h-2.25l-.14-1.17a3.22,3.22,0,0,1-2.74,1.46c-2.39,0-3.62-2-3.62-5.06s1.51-5.06,3.87-5.06a3.28,3.28,0,0,1,2.33,1v-4.76Zm-2.55,10.57V213.9a2.09,2.09,0,0,0-1.66-.9c-1.12,0-1.87.94-1.87,3.17,0,2.4.68,3.15,1.71,3.15A2.12,2.12,0,0,0,231.31,218.17Z" fill="#333"/><path d="M236,214.3h5.58v2H236Z" fill="#333"/><path d="M155.44,232.12V233h2.26l-.28,1.8h-2v7.74h-2.56V234.8h-1.51V233h1.51v-.95c0-1.77,1.17-3.14,3.49-3.14a5.74,5.74,0,0,1,2.52.58l-.7,1.69a3.63,3.63,0,0,0-1.55-.36C155.78,230.82,155.44,231.22,155.44,232.12Z" fill="#333"/><path d="M167.26,237.77c0,3-1.71,5.06-4.57,5.06s-4.57-1.89-4.57-5.06,1.71-5.06,4.59-5.06S167.26,234.6,167.26,237.77ZM162,229.62a1.35,1.35,0,1,1-1.35-1.34A1.33,1.33,0,0,1,162,229.62Zm-1.21,8.15c0,2.2.65,3.15,1.91,3.15s1.91-1,1.91-3.15-.65-3.15-1.89-3.15S160.78,235.59,160.78,237.77Zm5.3-8.15a1.36,1.36,0,1,1-1.37-1.34A1.34,1.34,0,0,1,166.08,229.62Z" fill="#333"/><path d="M175.06,232.87l-.42,2.47a3.51,3.51,0,0,0-.86-.13c-1.17,0-1.73.89-2.05,2.45v4.88h-2.56V233h2.23l.22,1.85a2.73,2.73,0,0,1,2.48-2.12A3.38,3.38,0,0,1,175.06,232.87Z" fill="#333"/><path d="M184.15,229.2v13.34H181.9l-.15-1.17a3.2,3.2,0,0,1-2.73,1.46c-2.4,0-3.62-2-3.62-5.06s1.51-5.06,3.87-5.06a3.27,3.27,0,0,1,2.32,1v-4.76Zm-2.56,10.57V235.5a2.07,2.07,0,0,0-1.66-.9c-1.11,0-1.87.94-1.87,3.17,0,2.4.69,3.15,1.71,3.15A2.09,2.09,0,0,0,181.59,239.77Z" fill="#333"/><path d="M194.66,238.55h-6c.18,1.83,1,2.37,2.27,2.37a3.84,3.84,0,0,0,2.32-.83l1.06,1.44a5.59,5.59,0,0,1-3.62,1.3c-3.06,0-4.66-2-4.66-5s1.55-5.12,4.34-5.12,4.3,1.8,4.3,4.85C194.71,237.88,194.68,238.28,194.66,238.55Zm-2.49-1.72c0-1.44-.48-2.37-1.71-2.37-1,0-1.62.66-1.76,2.48h3.47Z" fill="#333"/><path d="M202.43,232.87l-.41,2.47a3.58,3.58,0,0,0-.86-.13c-1.17,0-1.73.89-2.06,2.45v4.88h-2.55V233h2.23l.22,1.85a2.73,2.73,0,0,1,2.48-2.12A3.26,3.26,0,0,1,202.43,232.87Z" fill="#333"/><path d="M211.69,235.59v6.95h-2.56V236c0-1.1-.41-1.41-1-1.41s-1.32.49-1.86,1.33v6.59h-2.56V233h2.24l.2,1.21a3.53,3.53,0,0,1,2.89-1.5A2.57,2.57,0,0,1,211.69,235.59Z" fill="#333"/><path d="M222.23,229.2v13.34H220l-.14-1.17a3.22,3.22,0,0,1-2.74,1.46c-2.39,0-3.62-2-3.62-5.06s1.52-5.06,3.88-5.06a3.27,3.27,0,0,1,2.32,1v-4.76Zm-2.55,10.57V235.5a2.09,2.09,0,0,0-1.66-.9c-1.11,0-1.87.94-1.87,3.17,0,2.4.68,3.15,1.71,3.15A2.12,2.12,0,0,0,219.68,239.77Z" fill="#333"/><path d="M412.88,177.79l-.94.81a3.24,3.24,0,0,0-2.27-.83c-2.87,0-4,3.36-4,6,0,2.05.87,2.9,2.5,2.9a4.18,4.18,0,0,0,2.1-.55l.48-3.28h-1.92v-1.23h3.58l-.72,5.25a6.53,6.53,0,0,1-3.73,1.06c-2.37,0-3.87-1.46-3.87-4.34,0-3.17,1.65-7.08,5.52-7.08A4.33,4.33,0,0,1,412.88,177.79Z" fill="#333"/><path d="M414.16,187.74l1.55-11h1.51l-.66,4.61h4.61l.66-4.61h1.5l-1.55,11h-1.51l.73-5.17h-4.62l-.71,5.17Z" fill="#333"/><path d="M432.39,177.85l-.95.88a3,3,0,0,0-2.3-1c-1.25,0-2.26.64-2.26,1.79,0,.84.45,1.27,2.07,1.81s2.88,1.14,2.88,3c0,1.69-1.3,3.54-4.33,3.54a4.5,4.5,0,0,1-3.56-1.48l1-.89a3.32,3.32,0,0,0,2.64,1.12c1.63,0,2.72-.85,2.72-2.21,0-1-.51-1.4-2-1.92-1.88-.66-2.89-1.35-2.89-2.92s1.32-3.12,3.8-3.12A4.2,4.2,0,0,1,432.39,177.85Z" fill="#333"/><path d="M437.91,176.88c1.9,0,2.91,1.37,2.91,3.85,0,2.92-1,7.21-4.44,7.21-1.9,0-2.91-1.38-2.91-3.86C433.47,181.16,434.5,176.88,437.91,176.88Zm-.05,1.16c-2.11,0-2.9,3.67-2.9,6.31,0,1.73.53,2.42,1.49,2.42,2.11,0,2.9-3.69,2.9-6.31C439.35,178.73,438.82,178,437.86,178Z" fill="#333"/><path d="M449.14,185.1h-1.38l-.37,2.64H446l.37-2.64h-4.53l.14-1,4.13-7.17,1.23.51-3.74,6.54h2.94l.55-2.88h1.28l-.4,2.88h1.36Z" fill="#333"/><path d="M413.75,198.09l-1.38,1.44a3.89,3.89,0,0,0-2.58-1c-1.76,0-3.17,1.31-3.17,4.55s.94,4.54,2.78,4.54a3.78,3.78,0,0,0,1.85-.45v-3h-1.74l-.27-1.93h4.59v6.14a8.48,8.48,0,0,1-4.38,1.26c-3.67,0-5.6-2.25-5.6-6.54s2.61-6.5,5.84-6.5A6,6,0,0,1,413.75,198.09Z" fill="#333"/><path d="M423.91,207.9l-.54,1.69a2.31,2.31,0,0,1-2.2-1.38,3.26,3.26,0,0,1-2.86,1.42,2.86,2.86,0,0,1-3.1-2.95c0-2.09,1.58-3.22,4.39-3.22h1.1V203c0-1.19-.5-1.57-1.69-1.57a8.69,8.69,0,0,0-2.52.5l-.6-1.71a10.11,10.11,0,0,1,3.53-.7c2.65,0,3.8,1.17,3.8,3.33v3.86C423.22,207.47,423.46,207.74,423.91,207.9Zm-3.21-1.17v-1.82h-.83c-1.4,0-2.09.51-2.09,1.55a1.17,1.17,0,0,0,1.25,1.33A1.85,1.85,0,0,0,420.7,206.73Z" fill="#333"/><path d="M432.4,200.66l-1,1.46a4.45,4.45,0,0,0-2.38-.75c-.84,0-1.31.34-1.31.86s.32.81,2,1.3c1.91.52,3,1.31,3,3,0,2-1.86,3.1-4.13,3.1a5.66,5.66,0,0,1-3.89-1.39l1.26-1.4a4.21,4.21,0,0,0,2.56.94c1,0,1.57-.4,1.57-1.05s-.35-.95-2.11-1.44c-1.93-.54-2.83-1.49-2.83-2.93,0-1.62,1.48-2.85,3.78-2.85A5.43,5.43,0,0,1,432.4,200.66Z" fill="#333"/><path d="M442.37,205.35h-6c.18,1.83,1,2.37,2.27,2.37a3.86,3.86,0,0,0,2.33-.83l1.06,1.44a5.63,5.63,0,0,1-3.62,1.3c-3.06,0-4.66-2-4.66-5s1.54-5.11,4.33-5.11,4.31,1.8,4.31,4.85C442.43,204.68,442.39,205.08,442.37,205.35Zm-2.48-1.72c0-1.44-.49-2.37-1.71-2.37-1,0-1.62.66-1.77,2.48h3.48Z" fill="#333"/><path d="M456.45,209.34h-2.21l-.13-1.28a3.21,3.21,0,0,1-2.9,1.57c-1.76,0-2.67-1.13-2.67-3V199.8h2.56v6.54c0,1,.34,1.38,1,1.38a2.1,2.1,0,0,0,1.74-1.24V199.8h2.56Z" fill="#333"/><path d="M466.93,202.39v7h-2.56v-6.51c0-1.1-.42-1.41-1.05-1.41s-1.31.49-1.85,1.33v6.59h-2.56V199.8h2.24l.19,1.21a3.57,3.57,0,0,1,2.9-1.5A2.57,2.57,0,0,1,466.93,202.39Z" fill="#333"/><path d="M475,208.89a4.51,4.51,0,0,1-2.49.74c-2,0-3-1.15-3-3.28V201.6h-1.42v-1.8h1.42v-2.09l2.56-.3v2.39h2.2l-.26,1.8h-1.94v4.7c0,.94.31,1.3,1,1.3a2.17,2.17,0,0,0,1.08-.33Z" fill="#333"/><path d="M483.84,205.35h-6c.19,1.83,1.05,2.37,2.27,2.37a3.86,3.86,0,0,0,2.33-.83l1.06,1.44a5.63,5.63,0,0,1-3.62,1.3c-3.06,0-4.66-2-4.66-5s1.54-5.11,4.34-5.11,4.3,1.8,4.3,4.85C483.9,204.68,483.86,205.08,483.84,205.35Zm-2.48-1.72c0-1.44-.49-2.37-1.71-2.37-1,0-1.62.66-1.77,2.48h3.48Z" fill="#333"/><path d="M491.62,199.67l-.41,2.47a3.59,3.59,0,0,0-.87-.13c-1.17,0-1.73.89-2,2.45v4.88h-2.56V199.8H488l.22,1.85a2.74,2.74,0,0,1,2.49-2.12A3.31,3.31,0,0,1,491.62,199.67Z" fill="#333"/><path d="M414.17,224.66c0,5-3.06,6.28-6.12,6.28h-3.57V218.48h3.26C411,218.48,414.17,219.51,414.17,224.66Zm-7-4.23V229h1.08c1.82,0,3.2-.85,3.2-4.34s-1.45-4.23-3.25-4.23Z" fill="#333"/><path d="M422,221.27l-.41,2.47a3.58,3.58,0,0,0-.87-.12c-1.17,0-1.73.88-2.05,2.44v4.88h-2.56V221.4h2.23l.22,1.85a2.74,2.74,0,0,1,2.49-2.12A3.31,3.31,0,0,1,422,221.27Z" fill="#333"/><path d="M431,230.94H428.8l-.12-1.27a3.24,3.24,0,0,1-2.9,1.56c-1.77,0-2.67-1.13-2.67-3V221.4h2.56v6.54c0,1,.34,1.38,1,1.38a2.1,2.1,0,0,0,1.75-1.24V221.4H431Z" fill="#333"/><path d="M440.66,222.26l-1.11,1.52a2.9,2.9,0,0,0-1.88-.69c-1.27,0-2,.92-2,3.14s.81,3,2,3a3.23,3.23,0,0,0,1.89-.67l1.11,1.61a4.78,4.78,0,0,1-3.13,1.11c-2.84,0-4.59-1.94-4.59-5s1.76-5.13,4.56-5.13A4.59,4.59,0,0,1,440.66,222.26Z" fill="#333"/><path d="M444.64,230.94h-2.56V217.6l2.56-.29Zm2.76-5.34,3.33,5.34h-2.92l-3.08-5.22,3.06-4.32h2.65Z" fill="#333"/><path d="M39.12,205.81,87.61,254.3l48.49-48.5q-24.25-24.23-48.48-48.47Z" fill="#fff"/><path d="M61.59,179.8l-26,26,26,26,26,26,26-26,26-26-26-26-26-26-26,26Zm47.93,4.11L131.4,205.8l-21.89,21.9-21.9,21.9L65.72,227.7,43.83,205.8l21.89-21.89L87.62,162Z" fill="red"/><path d="M87.17,168.14c-1.62,1.76,0,9-3.35,15.76-1.74-1.86-2.44-5.33-4.41-7.07,1,2.66-1.85,2.43-.81,11.7-1.57-.4-1.62-1-5.09-5.21.64,4,.23,6.6,1,11.12,0,0-.84-.18-4.86-3.14,1.3,4.41-1,13.68,4.22,20.24h0a13.74,13.74,0,0,0,10.15,12.32H74v4.26h28.08v-4.26h-11a13.78,13.78,0,0,0,9.94-10.66h0c1.38-2.2,7.55-9.34,2.8-20.83a7.24,7.24,0,0,1-3.94,3.24s3.26-5.44.58-9.84c0,0-.79,3.22-3.47,3.36,0,0,1.31-6.87-2.2-11.24-1.28,2.9.76,4.1-3.48,6.49-.58-8.92-2.43-10.43-4.17-16.22Zm-.93,19.46c1.62,1,2.79,2.71,3.14,5.92a22.27,22.27,0,0,0,1.07,3.66,13.93,13.93,0,0,0-6.35.14C83.85,192.64,86.3,193.67,86.24,187.6ZM80.34,191a22.82,22.82,0,0,0,2.3,6.84,13.65,13.65,0,0,0-3.24,1.79C78.86,195.36,80.09,194.4,80.34,191ZM94.7,193a61.06,61.06,0,0,0,1.43,6.83,13.86,13.86,0,0,0-4.44-2.37A15.87,15.87,0,0,1,94.7,193ZM74,197.56a18,18,0,0,0,4.44,2.83,14.1,14.1,0,0,0-2.83,3.55A60.18,60.18,0,0,1,74,197.56Zm27.22,1.51a22.89,22.89,0,0,1-.58,7.18v.07a13.58,13.58,0,0,0-2.88-4.95,21,21,0,0,1,3.46-2.3Zm-13.73,1.6a9.81,9.81,0,1,1-9.8,9.81A9.81,9.81,0,0,1,87.46,200.67Z" fill="#333"/><path d="M290.9,205.81l48.49,48.49,48.49-48.5q-24.25-24.23-48.48-48.47Z" fill="#fff"/><path d="M313.37,179.8l-26,26,26,26,26,26,26-26,26-26-26-26-26-26-26,26Zm47.93,4.11,21.88,21.89-21.89,21.9-21.9,21.9L317.5,227.7l-21.89-21.9,21.89-21.89L339.4,162Z" fill="red"/><path d="M350.55,194.93a2.12,2.12,0,0,0-.38,0c-.17,0-34,9.11-34.09,9.15a3.35,3.35,0,0,0-1.8,2.92,8.07,8.07,0,0,0,0,1.22,8.33,8.33,0,0,0,.24,1.63c.58,2.33,2,4.15,3.57,4.5a2.91,2.91,0,0,0,.78,0c.16,0,33.65-9,34-9.12a2.43,2.43,0,0,0,1.49-1.38,4.92,4.92,0,0,0,.43-1.37,2.08,2.08,0,0,1,.34-.93,2,2,0,0,1,1.05-.78l3.71-1c2-.53,3.64-1,3.69-1a1.87,1.87,0,0,0,.63-2.51,1.85,1.85,0,0,0-1.2-1,1.62,1.62,0,0,0-.58,0l-3.66,1-3.62,1a1.85,1.85,0,0,1-.4,0,1.56,1.56,0,0,1-.73-.13,2.2,2.2,0,0,1-.89-.71,4.51,4.51,0,0,0-1.48-1.21,2.76,2.76,0,0,0-.67-.22A2.18,2.18,0,0,0,350.55,194.93Z" fill="#333"/><rect x="19.91" y="268.92" width="252.09" height="126.21" fill="#fff" stroke="#e93333" stroke-miterlimit="10" stroke-width="11"/><rect x="272" y="268.92" width="252.09" height="126.21" fill="#fff" stroke="#e93333" stroke-miterlimit="10" stroke-width="11"/><path d="M161,314.16l-.94.82a3.25,3.25,0,0,0-2.28-.83c-2.86,0-3.95,3.36-3.95,6,0,2,.86,2.89,2.5,2.89a4.21,4.21,0,0,0,2.09-.54l.48-3.28H157V318h3.59l-.72,5.25a6.55,6.55,0,0,1-3.73,1.06c-2.37,0-3.88-1.46-3.88-4.34,0-3.17,1.65-7.07,5.53-7.07A4.34,4.34,0,0,1,161,314.16Z" fill="#333"/><path d="M162.29,324.12l1.55-11h1.5l-.65,4.61h4.61l.65-4.61h1.51l-1.55,11H168.4l.72-5.17h-4.61l-.72,5.17Z" fill="#333"/><path d="M180.51,314.23l-.94.88a3,3,0,0,0-2.31-1c-1.24,0-2.25.64-2.25,1.79,0,.83.45,1.26,2.06,1.81s2.88,1.13,2.88,3c0,1.7-1.29,3.54-4.32,3.54a4.53,4.53,0,0,1-3.57-1.47l1-.9a3.35,3.35,0,0,0,2.64,1.12c1.64,0,2.72-.85,2.72-2.21,0-1-.51-1.39-2-1.92-1.87-.65-2.88-1.34-2.88-2.91s1.31-3.12,3.79-3.12A4.19,4.19,0,0,1,180.51,314.23Z" fill="#333"/><path d="M186,313.25c1.91,0,2.92,1.38,2.92,3.86,0,2.91-1,7.2-4.44,7.2-1.9,0-2.91-1.38-2.91-3.86C181.6,317.54,182.62,313.25,186,313.25Zm-.05,1.17c-2.11,0-2.89,3.66-2.89,6.31,0,1.72.53,2.41,1.49,2.41,2.11,0,2.89-3.68,2.89-6.3C187.47,315.11,186.94,314.42,186,314.42Z" fill="#333"/><path d="M197,314.56H192.8l-.45,3.14a3.74,3.74,0,0,1,1.7-.4c1.61,0,2.62,1,2.62,2.9a4,4,0,0,1-4.13,4.11,3.63,3.63,0,0,1-3-1.39l1-.82a2.42,2.42,0,0,0,2.09,1,2.71,2.71,0,0,0,2.6-2.94c0-1.32-.68-1.73-1.58-1.73a3.78,3.78,0,0,0-1.63.36h-1.16l.76-5.39h5.73Z" fill="#333"/><path d="M158.5,342.93h-3.91l-.7,2.79h-2.76L155,333.26h3.22L162,345.72H159.2Zm-2.63-12.41a1.35,1.35,0,1,1-1.35-1.33A1.32,1.32,0,0,1,155.87,330.52ZM158,341l-1.46-5.74L155.08,341Zm2-10.44a1.36,1.36,0,1,1-1.37-1.33A1.34,1.34,0,0,1,160,330.52Z" fill="#333"/><path d="M168.81,345.27a4.56,4.56,0,0,1-2.48.74c-2,0-3-1.16-3-3.28V338h-1.43v-1.8h1.43v-2.09l2.55-.31v2.4h2.2l-.25,1.8h-2v4.7c0,.93.31,1.29,1,1.29a2.32,2.32,0,0,0,1.08-.32Z" fill="#333"/><path d="M176.39,338l-4.48,5.75h4.57l-.25,2H169v-1.84l4.48-5.74h-4.1v-2h7Z" fill="#333"/><path d="M185.91,341.72h-6c.18,1.84,1.05,2.38,2.27,2.38a3.84,3.84,0,0,0,2.32-.83l1.06,1.44A5.58,5.58,0,0,1,182,346c-3.07,0-4.67-2-4.67-5s1.55-5.11,4.34-5.11,4.3,1.8,4.3,4.84C186,341.06,185.93,341.45,185.91,341.72ZM183.43,340c0-1.44-.49-2.38-1.71-2.38-1,0-1.62.67-1.77,2.49h3.48Z" fill="#333"/><path d="M195.81,338.77v7h-2.56V339.2c0-1.1-.41-1.4-1-1.4s-1.31.48-1.85,1.33v6.59H187.8v-9.54H190l.2,1.2a3.57,3.57,0,0,1,2.9-1.49A2.56,2.56,0,0,1,195.81,338.77Z" fill="#333"/><path d="M206.36,332.38v13.34h-2.25l-.15-1.17a3.19,3.19,0,0,1-2.73,1.46c-2.4,0-3.62-2-3.62-5.06s1.51-5.06,3.87-5.06a3.25,3.25,0,0,1,2.32.95v-4.75ZM203.8,343v-4.27a2.07,2.07,0,0,0-1.65-.9c-1.12,0-1.88.93-1.88,3.17s.69,3.15,1.71,3.15A2.11,2.11,0,0,0,203.8,343Z" fill="#333"/><path d="M412.88,315.16l-.94.82a3.24,3.24,0,0,0-2.27-.83c-2.87,0-4,3.36-4,6,0,2,.87,2.89,2.5,2.89a4.27,4.27,0,0,0,2.1-.54l.48-3.28h-1.92V319h3.58l-.72,5.25a6.53,6.53,0,0,1-3.73,1.06c-2.37,0-3.87-1.46-3.87-4.34,0-3.17,1.65-7.07,5.52-7.07A4.33,4.33,0,0,1,412.88,315.16Z" fill="#333"/><path d="M414.16,325.12l1.55-11h1.51l-.66,4.61h4.61l.66-4.61h1.5l-1.55,11h-1.51L421,320h-4.62l-.71,5.17Z" fill="#333"/><path d="M432.39,315.23l-.95.88a3,3,0,0,0-2.3-1c-1.25,0-2.26.64-2.26,1.79,0,.83.45,1.26,2.07,1.81s2.88,1.13,2.88,3c0,1.7-1.3,3.54-4.33,3.54a4.49,4.49,0,0,1-3.56-1.47l1-.9a3.32,3.32,0,0,0,2.64,1.12c1.63,0,2.72-.85,2.72-2.21,0-1-.51-1.39-2-1.92-1.88-.65-2.89-1.34-2.89-2.91s1.32-3.12,3.8-3.12A4.2,4.2,0,0,1,432.39,315.23Z" fill="#333"/><path d="M437.91,314.25c1.9,0,2.91,1.38,2.91,3.86,0,2.91-1,7.2-4.44,7.2-1.9,0-2.91-1.38-2.91-3.86C433.47,318.54,434.5,314.25,437.91,314.25Zm-.05,1.17c-2.11,0-2.9,3.66-2.9,6.31,0,1.72.53,2.41,1.49,2.41,2.11,0,2.9-3.68,2.9-6.3C439.35,316.11,438.82,315.42,437.86,315.42Z" fill="#333"/><path d="M449.15,320.93c0,1.79-1.15,4.38-3.87,4.38-2.16,0-3-1.47-3-3.73,0-3.62,1.68-7.33,4.87-7.33a3.49,3.49,0,0,1,2.13.67l-.66,1a2.69,2.69,0,0,0-1.52-.46c-1.55,0-2.75,1.62-3.19,4a3.51,3.51,0,0,1,2.71-1.37C448,318.08,449.15,319,449.15,320.93Zm-1.45,0c0-1.23-.56-1.66-1.38-1.66a3.39,3.39,0,0,0-2.58,1.53c0,.37,0,.64,0,1,0,1.68.48,2.38,1.62,2.38C447.17,324.14,447.7,322.09,447.7,320.91Z" fill="#333"/><path d="M412.46,336.33h-3.15v10.39h-2.65V336.33h-3.31v-2.07h9.4Z" fill="#333"/><path d="M421.62,342c0,3-1.71,5.06-4.57,5.06s-4.58-1.89-4.58-5.06,1.71-5.06,4.6-5.06S421.62,338.78,421.62,342Zm-6.48,0c0,2.19.65,3.15,1.91,3.15s1.91-1,1.91-3.15-.65-3.15-1.89-3.15S415.14,339.77,415.14,342Z" fill="#333"/><path d="M431.34,346.72h-2.93L426.59,343l-1.79,3.69H422l3.13-5-2.81-4.52h2.88l1.5,3.16,1.45-3.16h2.74l-2.68,4.43Z" fill="#333"/><path d="M435.28,333.75a1.49,1.49,0,0,1-1.57,1.5,1.5,1.5,0,1,1,0-3A1.49,1.49,0,0,1,435.28,333.75Zm-.29,13h-2.55v-9.54H435Z" fill="#333"/><path d="M444.12,338l-1,1.46a4.4,4.4,0,0,0-2.38-.76c-.85,0-1.31.34-1.31.87s.32.81,2,1.29c1.9.52,3,1.32,3,3,0,2-1.85,3.1-4.12,3.1a5.65,5.65,0,0,1-3.89-1.39l1.26-1.4a4.24,4.24,0,0,0,2.56.93c.95,0,1.57-.39,1.57-1s-.35-1-2.11-1.44c-1.93-.54-2.83-1.5-2.83-2.94,0-1.62,1.48-2.84,3.78-2.84A5.43,5.43,0,0,1,444.12,338Z" fill="#333"/><path d="M453.23,338l-1.12,1.51a2.88,2.88,0,0,0-1.87-.68c-1.28,0-2,.92-2,3.13s.81,2.95,2,2.95a3.21,3.21,0,0,0,1.89-.66l1.12,1.6a4.81,4.81,0,0,1-3.14,1.12c-2.84,0-4.59-1.95-4.59-5s1.77-5.13,4.56-5.13A4.6,4.6,0,0,1,453.23,338Z" fill="#333"/><path d="M462.66,339.77v7H460.1V340.2c0-1.1-.43-1.4-1.06-1.4a2.3,2.3,0,0,0-1.84,1.31v6.61h-2.55V333.38l2.55-.27v5.16a3.45,3.45,0,0,1,2.78-1.38A2.56,2.56,0,0,1,462.66,339.77Z" fill="#333"/><rect x="19.91" y="395.13" width="252.09" height="126.21" fill="#fff" stroke="#e93333" stroke-miterlimit="10" stroke-width="11"/><rect x="272" y="395.13" width="252.09" height="126.21" fill="#fff" stroke="#e93333" stroke-miterlimit="10" stroke-width="11"/><path d="M161,441.94l-.94.82a3.25,3.25,0,0,0-2.28-.83c-2.86,0-3.95,3.36-3.95,6,0,2,.86,2.89,2.5,2.89a4.21,4.21,0,0,0,2.09-.54l.48-3.28H157v-1.24h3.59l-.72,5.25a6.55,6.55,0,0,1-3.73,1.06c-2.37,0-3.88-1.46-3.88-4.34,0-3.17,1.65-7.07,5.53-7.07A4.34,4.34,0,0,1,161,441.94Z" fill="#333"/><path d="M162.29,451.9l1.55-11h1.5l-.65,4.61h4.61l.65-4.61h1.51l-1.55,11H168.4l.72-5.17h-4.61l-.72,5.17Z" fill="#333"/><path d="M180.51,442l-.94.88a3,3,0,0,0-2.31-1c-1.24,0-2.25.64-2.25,1.79,0,.83.45,1.26,2.06,1.81s2.88,1.13,2.88,3c0,1.7-1.29,3.54-4.32,3.54a4.56,4.56,0,0,1-3.57-1.47l1-.9a3.35,3.35,0,0,0,2.64,1.12c1.64,0,2.72-.85,2.72-2.21,0-1-.51-1.39-2-1.92-1.87-.65-2.88-1.34-2.88-2.91s1.31-3.12,3.79-3.12A4.19,4.19,0,0,1,180.51,442Z" fill="#333"/><path d="M186,441c1.91,0,2.92,1.38,2.92,3.86,0,2.91-1,7.2-4.44,7.2-1.9,0-2.91-1.38-2.91-3.86C181.6,445.32,182.62,441,186,441ZM186,442.2c-2.11,0-2.89,3.66-2.89,6.3,0,1.73.53,2.42,1.49,2.42,2.11,0,2.89-3.68,2.89-6.3C187.47,442.89,186.94,442.2,186,442.2Z" fill="#333"/><path d="M196.53,442.29l-5.3,9.77-1.33-.45,5.11-9.22h-4.68l.18-1.2h6.16Z" fill="#333"/><path d="M156.61,468.62h-1.35v4.88h-2.65V461h3.89c3.33,0,5,1.21,5,3.73,0,1.65-.81,2.64-2.47,3.36l3.23,5.37h-3Zm-1.35-1.87h1.38c1.39,0,2.14-.58,2.14-2s-.73-1.84-2.34-1.84h-1.18Z" fill="#333"/><path d="M171.44,469.5h-6c.18,1.84,1,2.38,2.27,2.38a3.9,3.9,0,0,0,2.32-.83l1.06,1.44a5.59,5.59,0,0,1-3.62,1.3c-3.06,0-4.66-2-4.66-5s1.55-5.11,4.34-5.11,4.3,1.8,4.3,4.84C171.49,468.83,171.46,469.23,171.44,469.5ZM169,467.79c0-1.44-.48-2.38-1.71-2.38-1,0-1.62.67-1.76,2.49H169Z" fill="#333"/><path d="M176.17,460.53a1.49,1.49,0,0,1-1.57,1.5,1.5,1.5,0,1,1,0-3A1.49,1.49,0,0,1,176.17,460.53Zm-.29,13h-2.55V464h2.55Z" fill="#333"/><path d="M184.83,465.77l-4.48,5.75h4.57l-.25,2h-7.26v-1.84l4.49-5.74h-4.11v-2h7Z" fill="#333"/><path d="M194.35,469.5h-6c.18,1.84,1.05,2.38,2.27,2.38a3.88,3.88,0,0,0,2.32-.83l1.07,1.44a5.63,5.63,0,0,1-3.62,1.3c-3.06,0-4.67-2-4.67-5s1.55-5.11,4.34-5.11,4.31,1.8,4.31,4.84C194.41,468.83,194.37,469.23,194.35,469.5Zm-2.48-1.71c0-1.44-.49-2.38-1.71-2.38-1,0-1.62.67-1.77,2.49h3.48Z" fill="#333"/><path d="M204.25,466.55v6.95H201.7V467c0-1.1-.42-1.4-1-1.4s-1.31.48-1.85,1.33v6.59h-2.56V464h2.23l.2,1.2a3.57,3.57,0,0,1,2.9-1.49A2.56,2.56,0,0,1,204.25,466.55Z" fill="#333"/><path d="M214.8,460.16V473.5h-2.25l-.14-1.17a3.22,3.22,0,0,1-2.74,1.46c-2.4,0-3.62-2-3.62-5.06s1.51-5.06,3.87-5.06a3.25,3.25,0,0,1,2.32.95v-4.75Zm-2.56,10.57v-4.27a2.05,2.05,0,0,0-1.65-.9c-1.12,0-1.88.93-1.88,3.17s.69,3.15,1.72,3.15A2.11,2.11,0,0,0,212.24,470.73Z" fill="#333"/><path d="M412.88,431.21l-.94.82a3.2,3.2,0,0,0-2.27-.83c-2.87,0-4,3.36-4,6,0,2.05.87,2.9,2.5,2.9a4.27,4.27,0,0,0,2.1-.54l.48-3.28h-1.92v-1.24h3.58l-.72,5.25a6.53,6.53,0,0,1-3.73,1.06c-2.37,0-3.87-1.46-3.87-4.34,0-3.17,1.65-7.07,5.52-7.07A4.33,4.33,0,0,1,412.88,431.21Z" fill="#333"/><path d="M414.16,441.17l1.55-11h1.51l-.66,4.61h4.61l.66-4.61h1.5l-1.55,11h-1.51L421,436h-4.62l-.71,5.17Z" fill="#333"/><path d="M432.39,431.28l-.95.88a3,3,0,0,0-2.3-1c-1.25,0-2.26.63-2.26,1.79,0,.83.45,1.26,2.07,1.81s2.88,1.13,2.88,3c0,1.7-1.3,3.54-4.33,3.54a4.53,4.53,0,0,1-3.56-1.47l1-.9a3.32,3.32,0,0,0,2.64,1.12c1.63,0,2.72-.85,2.72-2.21,0-1-.51-1.39-2-1.92-1.88-.66-2.89-1.34-2.89-2.91s1.32-3.12,3.8-3.12A4.2,4.2,0,0,1,432.39,431.28Z" fill="#333"/><path d="M437.91,430.3c1.9,0,2.91,1.37,2.91,3.86,0,2.91-1,7.2-4.44,7.2-1.9,0-2.91-1.38-2.91-3.86C433.47,434.59,434.5,430.3,437.91,430.3Zm-.05,1.17c-2.11,0-2.9,3.66-2.9,6.3,0,1.73.53,2.42,1.49,2.42,2.11,0,2.9-3.68,2.9-6.31C439.35,432.16,438.82,431.47,437.86,431.47Z" fill="#333"/><path d="M449.25,437.93c0,2-1.76,3.43-4.07,3.43-2,0-3.28-1.15-3.28-2.79,0-1.2.55-2.27,2.5-3.07a2.43,2.43,0,0,1-1.31-2.22c0-1.75,1.49-3,3.47-3,1.55,0,3,.83,3,2.46,0,1.25-.67,2-2.16,2.69A2.7,2.7,0,0,1,449.25,437.93Zm-1.49-.06c0-.87-.57-1.3-2-1.83l-.36-.11a2.77,2.77,0,0,0-2,2.63c0,1,.69,1.63,1.84,1.63A2.32,2.32,0,0,0,447.76,437.87Zm-3.26-4.61c0,1,.64,1.36,1.69,1.73l.23.06c1.47-.77,1.73-1.52,1.73-2.27s-.52-1.38-1.64-1.38A1.79,1.79,0,0,0,444.5,433.26Z" fill="#333"/><path d="M413.75,451.51,412.37,453a4,4,0,0,0-2.58-1c-1.76,0-3.17,1.32-3.17,4.56s.94,4.53,2.78,4.53a3.78,3.78,0,0,0,1.85-.45v-3h-1.74l-.27-1.93h4.59v6.14a8.39,8.39,0,0,1-4.38,1.26c-3.67,0-5.6-2.25-5.6-6.53s2.61-6.5,5.84-6.5A5.94,5.94,0,0,1,413.75,451.51Z" fill="#333"/><path d="M423.8,458.77h-6c.18,1.84,1,2.38,2.27,2.38a3.9,3.9,0,0,0,2.32-.83l1.06,1.44a5.64,5.64,0,0,1-3.62,1.29c-3.06,0-4.66-2-4.66-5s1.55-5.11,4.34-5.11,4.3,1.8,4.3,4.84C423.85,458.1,423.82,458.5,423.8,458.77Zm-2.49-1.71c0-1.44-.48-2.38-1.71-2.38-1,0-1.62.67-1.76,2.49h3.47Z" fill="#333"/><path d="M432.17,454.09l-1,1.46a4.4,4.4,0,0,0-2.38-.76c-.85,0-1.32.34-1.32.86s.33.81,2,1.3c1.91.52,3,1.32,3,3,0,2-1.85,3.09-4.12,3.09a5.64,5.64,0,0,1-3.89-1.38l1.26-1.41a4.19,4.19,0,0,0,2.56.94c.95,0,1.56-.4,1.56-1s-.34-1-2.1-1.44c-1.93-.55-2.83-1.5-2.83-2.94,0-1.62,1.48-2.84,3.78-2.84A5.43,5.43,0,0,1,432.17,454.09Z" fill="#333"/><path d="M441.71,462.77h-2.22l-.12-1.28a3.22,3.22,0,0,1-2.9,1.56c-1.77,0-2.67-1.13-2.67-3v-6.86h2.56v6.54c0,1,.34,1.39,1,1.39a2.1,2.1,0,0,0,1.75-1.25v-6.68h2.56Z" fill="#333"/><path d="M452,455.82v6.95h-2.55v-6.52c0-1.1-.42-1.41-1.05-1.41s-1.31.49-1.85,1.34v6.59H444v-9.55h2.23l.2,1.21a3.57,3.57,0,0,1,2.9-1.49A2.56,2.56,0,0,1,452,455.82Z" fill="#333"/><path d="M462.37,449.42v13.35h-2.25L460,461.6a3.23,3.23,0,0,1-2.74,1.45c-2.39,0-3.62-2-3.62-5.05s1.51-5.06,3.87-5.06a3.25,3.25,0,0,1,2.32.95v-4.75ZM459.81,460v-4.26a2.05,2.05,0,0,0-1.65-.9c-1.12,0-1.87.93-1.87,3.17s.68,3.15,1.71,3.15A2.1,2.1,0,0,0,459.81,460Z" fill="#333"/><path d="M472.67,455.82v6.95h-2.56v-6.52c0-1.1-.43-1.41-1.06-1.41s-1.3.49-1.84,1.32v6.61h-2.55V449.42l2.55-.27v5.17a3.44,3.44,0,0,1,2.77-1.38A2.57,2.57,0,0,1,472.67,455.82Z" fill="#333"/><path d="M482.87,458.77h-6c.18,1.84,1,2.38,2.27,2.38a3.88,3.88,0,0,0,2.32-.83l1.07,1.44a5.68,5.68,0,0,1-3.62,1.29c-3.06,0-4.66-2-4.66-5s1.54-5.11,4.33-5.11,4.31,1.8,4.31,4.84C482.93,458.1,482.89,458.5,482.87,458.77Zm-2.48-1.71c0-1.44-.49-2.38-1.71-2.38-1,0-1.62.67-1.77,2.49h3.48Z" fill="#333"/><path d="M487.43,449.8a1.49,1.49,0,0,1-1.57,1.5,1.5,1.5,0,1,1,0-3A1.49,1.49,0,0,1,487.43,449.8Zm-.29,13h-2.56v-9.55h2.56Z" fill="#333"/><path d="M495.17,462.32a4.58,4.58,0,0,1-2.49.73c-2,0-3-1.15-3-3.27V455h-1.42v-1.8h1.42v-2.09l2.56-.3v2.39h2.2l-.26,1.8h-1.94v4.7c0,.94.31,1.3.95,1.3a2.25,2.25,0,0,0,1.08-.32Z" fill="#333"/><path d="M502.74,454.09l-1,1.46a4.38,4.38,0,0,0-2.38-.76c-.84,0-1.31.34-1.31.86s.32.81,2,1.3c1.91.52,3,1.32,3,3,0,2-1.86,3.09-4.13,3.09a5.63,5.63,0,0,1-3.88-1.38l1.26-1.41a4.18,4.18,0,0,0,2.55.94c1,0,1.57-.4,1.57-1s-.34-1-2.11-1.44-2.82-1.5-2.82-2.94c0-1.62,1.47-2.84,3.78-2.84A5.43,5.43,0,0,1,502.74,454.09Z" fill="#333"/><path d="M504,456.12h5.58v2H504Z" fill="#333"/><path d="M413,475.35a7.83,7.83,0,0,1-2.75.36,2.49,2.49,0,0,1,1.76,2.45c0,1.85-1.49,3.2-3.92,3.2a4.31,4.31,0,0,1-1.12-.13.77.77,0,0,0-.36.63c0,.33.16.64,1.1.64h1.46c2.16,0,3.54,1.15,3.54,2.73,0,1.93-1.67,3.1-4.86,3.1-3.49,0-4.44-1.14-4.44-3h2.28c0,.9.4,1.29,2.22,1.29s2.23-.48,2.23-1.17-.49-1-1.49-1H407.2c-2,0-2.83-.87-2.83-1.87a2.21,2.21,0,0,1,1.12-1.79A2.84,2.84,0,0,1,403.8,478c0-2.1,1.67-3.45,4.07-3.45a7.58,7.58,0,0,0,4.46-1.16ZM406.35,478a1.54,1.54,0,0,0,1.59,1.74c1,0,1.57-.61,1.57-1.78s-.53-1.67-1.59-1.67A1.53,1.53,0,0,0,406.35,478Z" fill="#333"/><path d="M422.11,480.37h-6c.18,1.84,1,2.38,2.27,2.38a3.84,3.84,0,0,0,2.32-.83l1.06,1.44a5.61,5.61,0,0,1-3.62,1.3c-3.06,0-4.66-2-4.66-5s1.55-5.11,4.34-5.11,4.3,1.8,4.3,4.84C422.16,479.7,422.12,480.1,422.11,480.37Zm-2.49-1.71c0-1.44-.48-2.38-1.71-2.38-1,0-1.62.67-1.76,2.49h3.47Z" fill="#333"/><path d="M426.91,473.94v.88h2.27l-.29,1.8h-2v7.75h-2.56v-7.75h-1.51v-1.8h1.51v-.95c0-1.76,1.17-3.13,3.5-3.13a5.74,5.74,0,0,1,2.52.57l-.7,1.7a3.63,3.63,0,0,0-1.55-.36C427.25,472.65,426.91,473,426.91,473.94Z" fill="#333"/><path d="M438,482.93l-.54,1.69a2.32,2.32,0,0,1-2.2-1.39,3.25,3.25,0,0,1-2.86,1.43,2.86,2.86,0,0,1-3.1-3c0-2.09,1.59-3.22,4.39-3.22h1.1V478c0-1.19-.5-1.57-1.69-1.57a8.42,8.42,0,0,0-2.52.51l-.59-1.71a9.84,9.84,0,0,1,3.53-.7c2.64,0,3.79,1.17,3.79,3.33v3.85C437.33,482.5,437.57,482.76,438,482.93Zm-3.21-1.17v-1.82H434c-1.41,0-2.09.5-2.09,1.55a1.16,1.16,0,0,0,1.24,1.33A1.85,1.85,0,0,0,434.81,481.76Z" fill="#333"/><path d="M447.86,477.42v6.95h-2.55v-6.52c0-1.1-.43-1.41-1.06-1.41s-1.3.49-1.84,1.32v6.61h-2.56V471l2.56-.28v5.17a3.44,3.44,0,0,1,2.77-1.38A2.56,2.56,0,0,1,447.86,477.42Z" fill="#333"/><path d="M456.09,474.7l-.42,2.47a3.09,3.09,0,0,0-.86-.13c-1.17,0-1.73.88-2.05,2.45v4.88H450.2v-9.55h2.23l.22,1.86a2.75,2.75,0,0,1,2.48-2.13A3.33,3.33,0,0,1,456.09,474.7Z" fill="#333"/><path d="M339.39,384.05l52-52-52-52-52,52Z" fill="red"/><path d="M339.39,375.8,295.63,332l43.76-43.76L383.16,332Z" fill="#fff"/><path d="M338.54,331.56c1.19,0,.79-.48,1.8-.48.83,0,.55.47,1.67.47a1.18,1.18,0,0,0,1.3-1.11c0-.49-.56-.81-.81-1.48s-.75-3.14-2.26-3.14a1.55,1.55,0,0,0-1.3.72c-.68.8-.73,2.15-1.15,2.67a2.36,2.36,0,0,0-.58,1.34c0,.31.15,1,1.34,1M326.91,340l-1.15.54a5,5,0,0,0-2.86,4.06,2.28,2.28,0,0,1-1.82,1.41,1.3,1.3,0,0,1-1.29-.9c-.16-.93-.86-4.27-.89-4.42a.77.77,0,0,0-1.5.32s.11.53.11.53c-1.32-.64-1.38-.75-1.38-1.21s1.3-1.28,2.33-1.28a5.82,5.82,0,0,1,2.16.49,5.4,5.4,0,0,0,1.85.44,2.92,2.92,0,0,0,1.7-.34l.37-.19c.59-.24,5.15-2.42,7.16-3.38a9,9,0,0,0,1,1.19m-.48-7.52c1.78,1.11,1.75,1.06,1.76,1.75,0,.19,0,.5,0,1.07,0,1.9,3.68,3.49,6,3.49,2.57,0,6-1.74,6-3.54v-1c0-.77.08-.84,1.56-1.71v3.61c0,1-1.38,3.17-3.88,4.43l-.08,0a11.84,11.84,0,0,1-3.34,1.3,13.67,13.67,0,0,1-4.06-1.34c-2.51-1.26-3.89-3.42-3.89-4.43Zm-15.61-5.91h0m44.93-1.43a.7.7,0,0,1,.57.2c.49.5.44,2,.41,3.07l0,.86a.74.74,0,0,0,.75.76.78.78,0,0,0,.78-.76v-.31a.79.79,0,0,1,.07.29V328c0,.42-.12.92-.7.92a4.53,4.53,0,0,1-1.66-.58,4.75,4.75,0,0,0-2-.64h-.11a4.47,4.47,0,0,0-2.29.46h0L349,332.4v-2.12c1.24-.57,6-2.74,7.14-3.34a9,9,0,0,0,2.92-3l.23-.33a2.89,2.89,0,0,1,2.25-1.18Zm-38.5,5.74h0a4.41,4.41,0,0,0-2.29-.47h-.11a4.7,4.7,0,0,0-2,.64,4.35,4.35,0,0,1-1.66.58c-.58,0-.7-.5-.7-.91v-1.47a.71.71,0,0,1,.07-.28v.3a.79.79,0,0,0,.79.77.75.75,0,0,0,.74-.77l0-.86c0-1.08-.08-2.56.41-3.07a.72.72,0,0,1,.56-.2,2.88,2.88,0,0,1,2.25,1.19l.23.33a9.29,9.29,0,0,0,2.92,3c1,.52,4.67,2.2,6.45,3V332ZM340,304.34c4.24,0,6.3,1.77,8.91,4.15l1.39,1.24.51.45c1.66,1.44,3.23,2.79,3.23,3.6a6.59,6.59,0,0,1-.82,2.92,5.12,5.12,0,0,0,.06-1c0-1.64-.46-2.35-2.13-4.1l-1.11,1c1.58,1.64,1.71,2,1.71,3.05a7.12,7.12,0,0,1-.33,2.14l-.44,2,.05.18a16.4,16.4,0,0,1,.52,3.71c0,1.89-1.16,2.6-2.62,3.5l-.46.28-1.57.95c-1.67,1-2.49,1.41-2.49,3.11v1c0,.57-2.14,2-4.42,2-2.09,0-4.39-1.45-4.47-2,0-.7,0-1,0-1,0-1.68-.81-2.15-2.42-3.08-.45-.26-1-.59-1.67-1l-.46-.28c-1.46-.9-2.51-1.41-2.51-3.5a19.53,19.53,0,0,1,.52-3.67c0-.68-.73-3.32-.73-3.74,0-.05,0-.5,0-.5,0-1,.12-1.81,1.65-3.17.13-.11.32-.45.17-.63l-.39-.48a.55.55,0,0,0-.41-.14.63.63,0,0,0-.37.1c-1.81,1.61-2.18,2.82-2.18,4.32,0,0,0,.45,0,.52,0,.41,0,.2.19,1.06a7.42,7.42,0,0,1-1.2-3.61c0-.78,1.5-2.13,3.08-3.56l.69-.63c.54-.5,1-1,1.48-1.41a12.22,12.22,0,0,1,2.83-2.33,13.13,13.13,0,0,1,6.19-1.5m-9,30.42c-2.64,1.27-6.51,3.11-7,3.32l-.5.25c-.22.12-.29.15-1,.15a4.09,4.09,0,0,1-1.32-.34,7.28,7.28,0,0,0-2.7-.58c-1.57,0-3.85,1.1-3.85,2.81,0,1.53,1,2,2.6,2.75l.7.33c.16.8.32,1.58.38,2a2.82,2.82,0,0,0,2.8,2.18,3.72,3.72,0,0,0,3.33-2.75,3.45,3.45,0,0,1,2-2.88l1.12-.53,6.43-3a10.19,10.19,0,0,0,1.44.87,15.2,15.2,0,0,0,4.75,1.57,11.6,11.6,0,0,0,4.06-1.55,10.57,10.57,0,0,0,1.81-1.14L354,342a3.44,3.44,0,0,1,2,2.88,3.72,3.72,0,0,0,3.34,2.74,2.82,2.82,0,0,0,2.8-2.18c.06-.36.22-1.15.38-1.95l-.07,0,.07,0,.7-.33c1.62-.76,2.6-1.22,2.6-2.74,0-1.72-2.28-2.81-3.85-2.81a7.28,7.28,0,0,0-2.7.58,4.09,4.09,0,0,1-1.32.34c-.68,0-.74,0-1-.16l-.5-.24c-.54-.23-5-2.35-7.62-3.61,0-.11.07-.21.1-.32l9.1-4.61a3.05,3.05,0,0,1,1.57-.33h.18a4.18,4.18,0,0,1,1.29.48,5.5,5.5,0,0,0,2.33.74,2.23,2.23,0,0,0,2.22-2.44v-1.47a3.22,3.22,0,0,0-1.58-2.53,3.66,3.66,0,0,0-.84-2.44,2.2,2.2,0,0,0-1.66-.66,4.42,4.42,0,0,0-3.48,1.81l-.25.36a8,8,0,0,1-2.36,2.51c-.71.36-2.78,1.33-4.55,2.14a4.59,4.59,0,0,0,2.13-4,16.43,16.43,0,0,0-.38-3.32l.27-.41c1.1-1.59,2.6-3.76,2.6-6.21,0-1.5-1.57-2.86-3.75-4.75l-.51-.45-1.36-1.21c-2.63-2.39-5.1-4.66-9.94-4.66a14.94,14.94,0,0,0-6.88,1.78,13.25,13.25,0,0,0-3.21,2.6c-.45.44-.91.89-1.44,1.37l-.68.63c-2.08,1.88-3.58,3.23-3.58,4.69,0,2.44,1.51,4.62,2.6,6.21l.2.29a28.92,28.92,0,0,0-.32,3.62,4.17,4.17,0,0,0,1.51,3.21c-1.37-.64-2.68-1.25-3.22-1.53a8,8,0,0,1-2.36-2.51l-.25-.36a4.41,4.41,0,0,0-3.48-1.81,2.2,2.2,0,0,0-1.66.66,3.66,3.66,0,0,0-.84,2.44h0a3.22,3.22,0,0,0-1.58,2.53V328a2.23,2.23,0,0,0,2.22,2.44,5.54,5.54,0,0,0,2.33-.73,4,4,0,0,1,1.29-.49h.18a2.91,2.91,0,0,1,1.57.32l8.34,4.22m17.46,2.08c1.56.74,7.05,3.37,7.69,3.64l.38.19a2.86,2.86,0,0,0,1.69.34,5.4,5.4,0,0,0,1.85-.44,5.82,5.82,0,0,1,2.16-.49c1,0,2.33.72,2.33,1.28s0,.57-1.38,1.21c.07-.32.11-.52.11-.53a.76.76,0,0,0-1.49-.32c0,.15-.74,3.49-.89,4.42a1.3,1.3,0,0,1-1.29.9,2.27,2.27,0,0,1-1.82-1.41,5,5,0,0,0-2.87-4.07L347.27,337a7.89,7.89,0,0,0,.91-1.17m-2-10.57c2.54,0,3.61-3.19,3.61-4a1.11,1.11,0,0,0-1-1.17h-4.84c-.52,0-1.76.42-1.76,1.22a3.26,3.26,0,0,0,.71,1.61c.84,1.11,1.56,2.35,3.3,2.35m-12.64,0c1.73,0,2.47-1.24,3.3-2.35a3.24,3.24,0,0,0,.72-1.6c0-.81-1.25-1.23-1.76-1.23H331a1.11,1.11,0,0,0-1,1.17c0,.83,1.07,4,3.61,4m-1.32,3.14h-1.13c.54.26,1,.44,1.13.52v-.52m-1.5,5.31a4.55,4.55,0,0,0,.26,1Z" fill="#333"/><path d="M39.17,458.24l48.47,48.48,48.5-48.48Q111.9,434,87.66,409.77L39.17,458.24" fill="#fff"/><path d="M35.62,458.24l52,52,52-52-52-52Zm95.82,0L87.64,502,43.89,458.23l43.77-43.78,43.78,43.78" fill="red"/><path d="M87.62,431.27h-.36a8.75,8.75,0,0,0-5.53,2.22,4.34,4.34,0,0,0-1.18,2.08,2,2,0,0,0,0,.64,2.42,2.42,0,0,0,0,.68c0,.26,3.58,24.13,3.62,24.53a3.88,3.88,0,0,0,7.7,0c0-.49,3.58-24.31,3.63-24.55a2.8,2.8,0,0,0,0-.64,2.41,2.41,0,0,0-.09-.86,4.29,4.29,0,0,0-2-2.54,9.13,9.13,0,0,0-5.34-1.56h-.54ZM88,468.2h-.22a5.52,5.52,0,0,0-4.46,2.59,6.23,6.23,0,0,0-1,4.26,6.31,6.31,0,0,0,2.09,4,5.71,5.71,0,0,0,3.66,1.36,5.79,5.79,0,0,0,4.73-2.59,6.29,6.29,0,0,0,1-4.3,7.45,7.45,0,0,0-.59-2A5.82,5.82,0,0,0,88,468.2" fill="#333"/><path d="M339.4,510.35l52-52-52-52-52,52Z" fill="red"/><path d="M339.4,502.1l-43.78-43.78,43.78-43.79,43.78,43.79Z" fill="#fff"/><path d="M339.64,424.85c-6.13,0-11.1,5.35-11.1,12,0,4.29,1.6,10.32,4.73,14l-.38,3.91-8.4,3a1.45,1.45,0,0,0,1.41,1.15,1.47,1.47,0,0,0,.36,0,1.43,1.43,0,0,0,1.38,1.07h.21a1.44,1.44,0,0,0,1.39,1.06,1.42,1.42,0,0,0,.55-.11.92.92,0,0,0,.91.82.84.84,0,0,0,.27,0,1.43,1.43,0,0,0,1.41,1.2,1.45,1.45,0,0,0,1.28-.77,1.44,1.44,0,0,0,.86.29,1.47,1.47,0,0,0,.6-.13,1.57,1.57,0,0,0,1,.84.45.45,0,0,0,0,.16.53.53,0,1,0,1.06,0,.58.58,0,0,0,0-.18,1.59,1.59,0,0,0,.81-2.35.52.52,0,0,0,.11-1,1.44,1.44,0,0,0,.35-1,1.27,1.27,0,0,0,0-.2,1.44,1.44,0,0,0,.92-1.35,1.38,1.38,0,0,0-.4-1l.14,0a.53.53,0,1,0,0-1.06.57.57,0,0,0-.31.1.7.7,0,0,0-.52-.37,1.95,1.95,0,0,0,.16-1.68,1.43,1.43,0,0,0,.94-1.34,1.47,1.47,0,0,0-.35-.94,1,1,0,0,0,.2-1.81,1,1,0,0,0,.22-.62,1.1,1.1,0,0,0,0-.18,1,1,0,0,0,.56-.2,1.37,1.37,0,0,0,0,.19,1,1,0,0,0,.46.85,1.57,1.57,0,0,0-.08.49,1.42,1.42,0,0,0,.85,1.31,1.81,1.81,0,0,0-.07.52,1.85,1.85,0,0,0,.73,1.49,1.1,1.1,0,0,0-.66,1,1.12,1.12,0,0,0,.66,1,.87.87,0,0,0-.13.45.92.92,0,0,0,.53.83,1.87,1.87,0,0,0-.14.71,1.9,1.9,0,0,0,.2.85,1.73,1.73,0,0,0-.17.21.56.56,0,0,0-.38-.15.53.53,0,0,0,0,1.05h.08a.61.61,0,0,0,0,.14,1.89,1.89,0,0,0,.29,1,2,2,0,0,0-.25,1,2.1,2.1,0,0,0,.54,1.4,1,1,0,0,0-.14.52,1,1,0,0,0,1.94.17,2.35,2.35,0,0,0,.74-.22.72.72,0,0,0,.66.42.73.73,0,0,0,.28-1.41,2.16,2.16,0,0,0,.16-.51,2,2,0,0,0,.5.07h.06a.88.88,0,0,0,.83.57.91.91,0,0,0,.71-.35.77.77,0,0,0,.75.57.79.79,0,0,0,.66-.35,1,1,0,0,0,.52.15,1,1,0,0,0,1-1,1,1,0,0,0-.14-.5,1,1,0,0,0,.24,0,.79.79,0,0,0,.79-.79s0-.07,0-.11a1,1,0,0,0,.89.54,1,1,0,0,0,1-1,1,1,0,0,0,.48-.76l.16,0a.52.52,0,0,0,.53-.52,1.13,1.13,0,0,0,0-.18l-.81-.26-8.38-2.7,0-3.58a15.27,15.27,0,0,0,3-5,31.59,31.59,0,0,0,2.09-9.48c0-5.21-5-12-11.1-12Zm-17.19,33.76a.74.74,0,0,0-.39.11c-2,.77-3.65,1.4-4.28,1.66a4,4,0,0,0-2.45,3.56v4.8l7.78,7.9a1,1,0,0,0,.25,0,1.18,1.18,0,0,0,1-.58,1.35,1.35,0,0,0,.5.09,1.43,1.43,0,0,0,1.44-1.44c0-.05,0-.11,0-.16a1.17,1.17,0,0,0,2.07-.74,1.3,1.3,0,0,0-.1-.49,1.16,1.16,0,0,0,.57-.43.81.81,0,1,0,1.14-1.16,1.16,1.16,0,0,0,.61-.74,1.15,1.15,0,0,0,.74.37.9.9,0,0,0-.19.53.82.82,0,0,0,.82.81.81.81,0,0,0,.25-1.59,1.17,1.17,0,0,0,.42-.9,1.06,1.06,0,0,0,0-.31h.11a1.18,1.18,0,0,0,.46-.09.59.59,0,1,0,.61-.61,1.18,1.18,0,0,0,.09-.46.92.92,0,0,0,0-.29.53.53,0,0,0,0-1.06h0a1.45,1.45,0,0,0-.59-1.07v-.1a1.43,1.43,0,0,0-1.44-1.44,1.46,1.46,0,0,0-.75.21.75.75,0,0,0,.05-.26.76.76,0,0,0-1-.73,1.23,1.23,0,0,0,0-.2,1.44,1.44,0,0,0-1.44-1.44,1,1,0,0,1-1.49-.45.88.88,0,0,0,.07-.32.76.76,0,0,0-.75-.75.82.82,0,0,0-.28.05,1.44,1.44,0,0,0-1.44-1.43,1.5,1.5,0,0,0-.37.05.75.75,0,0,0-.69-.46.73.73,0,0,0-.48.18.76.76,0,0,0-.75-.65m35.2.17a.79.79,0,0,0-.71.63.74.74,0,0,0-.36-.09.79.79,0,0,0-.79.79s0,.08,0,.12A1.4,1.4,0,0,0,355,460a1.43,1.43,0,0,0-1.44,1.44h0a2.31,2.31,0,0,0-.46,0,1.9,1.9,0,0,0-1.9,1.9,1.33,1.33,0,0,0,0,.28.9.9,0,0,0-.37-.07.91.91,0,0,0-.73.36,1.91,1.91,0,0,0-.54-.08,1.74,1.74,0,0,0-1.74,1.66l-.18,0a.92.92,0,0,0-.92.92.88.88,0,0,0,.11.42,1,1,0,0,0-.49-.13,1,1,0,0,0-1,1,1.05,1.05,0,0,0,.32.74h0a.6.6,0,0,0-.5.39.49.49,0,0,0,0,.21.53.53,0,0,0,.24.45.62.62,0,0,0,.36.12.6.6,0,0,0,.55-.38,1,1,0,0,0,.46.12.83.83,0,0,0,.22,0,1.09,1.09,0,0,0,0,.18,1.75,1.75,0,0,0,.12.65.74.74,0,0,0-.56.72.8.8,0,0,0,.06.3.72.72,0,0,0,.67.45.7.7,0,0,0,.59-.32.65.65,0,0,0,.11-.22,1.87,1.87,0,0,0,.75.16h.24a1.05,1.05,0,0,0-.07.4,1.11,1.11,0,0,0,.12.52h-.11a.59.59,0,1,0,0,1.18.6.6,0,0,0,.58-.5,1.42,1.42,0,0,0,1.38,1.09,1.4,1.4,0,0,0,.81-.26,1.17,1.17,0,0,0,1.16,1,1.18,1.18,0,0,0,.79-.31.41.41,0,0,0,0,.11,1.45,1.45,0,0,0,1.44,1.44,1.42,1.42,0,0,0,.74-.21.88.88,0,0,0-.17.53.89.89,0,0,0,.9.89.86.86,0,0,0,.72-.37l7.79-7.17v-5.25c0-1.59-1.72-3.58-3.79-4.29l-3.53-1.16m-17.75.7a.73.73,0,0,0-.34,1.37.55.55,0,0,0-.39.51.53.53,0,0,0,1.06,0,.54.54,0,0,0-.22-.43.73.73,0,0,0-.11-1.45m-2.62.68v0l0,0h0m1.59,2.5a.53.53,0,1,0,.53.53.53.53,0,0,0-.53-.53m-4.87.56a.76.76,0,1,0,.75.75.75.75,0,0,0-.75-.75m8.54,1.34a.59.59,0,0,0-.59.59.6.6,0,0,0,.59.59l.14,0a.78.78,0,0,0,.79.75l.16,0a.73.73,0,0,0,.65-.73.65.65,0,0,0-.1-.36.78.78,0,0,0-.71-.47.83.83,0,0,0-.36.09.6.6,0,0,0-.57-.42m-8.19,1.35a.53.53,0,1,0,0,1.06.54.54,0,0,0,.3-.1.73.73,0,0,0,1.46,0,.73.73,0,0,0-.73-.73.74.74,0,0,0-.52.21.52.52,0,0,0-.51-.4m10.29,3.76a.78.78,0,0,0-.78.78.93.93,0,0,0,.05.29.57.57,0,0,0-.51.57.52.52,0,0,0,.05.23.58.58,0,0,0,.52.36h0a.59.59,0,0,0,.59-.59s0-.05,0-.08h.07a.79.79,0,1,0,0-1.57m-6.16,1a.74.74,0,1,0,.73.73.74.74,0,0,0-.73-.73m-4.28.11a.59.59,0,1,0,.58.58.58.58,0,0,0-.58-.58m.86,1.59A.81.81,0,0,0,335,474v.09a1.44,1.44,0,0,0-2.15.36,1.17,1.17,0,0,0-2,.49,1.25,1.25,0,0,0-.66-.2A1.17,1.17,0,0,0,329,475.9a1.09,1.09,0,0,0,0,.26,1.74,1.74,0,0,0-2.77.6,1.11,1.11,0,0,0-.65-.2,1.17,1.17,0,0,0-1.17,1.17,1.24,1.24,0,0,0,0,.27l14.13,14.35a.5.5,0,0,0,.32-.47.52.52,0,0,0-.29-.46.51.51,0,0,0,0-.95.67.67,0,0,0-.22-1.21,2.26,2.26,0,0,0,1-1.86,2.23,2.23,0,0,0-.4-1.28,1.46,1.46,0,0,0,.67-1.22,1.43,1.43,0,0,0-.84-1.31.81.81,0,0,0,0-1.32.79.79,0,0,0,.19-.52.82.82,0,0,0-.82-.81l-.2,0a1.41,1.41,0,0,0,.14-.62,1.45,1.45,0,0,0-.12-.59.81.81,0,0,0,.22-1.57,1.46,1.46,0,0,0,.5-1.09,1.43,1.43,0,0,1-.28-2.14,1.4,1.4,0,0,0-.28-.85.58.58,0,0,0,.39-.55A.59.59,0,0,0,338,473a.57.57,0,0,0-.47.25,1.47,1.47,0,0,0-1.12-.53,1.31,1.31,0,0,0-.59.13.82.82,0,0,0-.72-.44Zm8,.23a1,1,0,0,0-.86,1.44.84.84,0,0,0-.52-.18.81.81,0,0,0-.19,1.6,1.5,1.5,0,0,0-.16.67,1.44,1.44,0,0,0,.56,1.14,1.78,1.78,0,0,0-.2.83,1.74,1.74,0,0,0,.47,1.19,1.63,1.63,0,0,0-.15.7,1.36,1.36,0,0,0,0,.29.85.85,0,0,0-.41-.15.79.79,0,0,0,.16-.48.83.83,0,0,0-1.65,0,.85.85,0,0,0,.22.56.81.81,0,0,0,.23,1.59h.08a1.69,1.69,0,0,0-.24.87,1.73,1.73,0,0,0,.78,1.45,1.76,1.76,0,0,0-1.06,1.61,1.71,1.71,0,0,0,.6,1.3,1.45,1.45,0,0,0-.63,1.19,1.31,1.31,0,0,0,.12.56,1.13,1.13,0,0,0-.17.6,1.15,1.15,0,0,0,.22.68.49.49,0,0,0-.2.4.51.51,0,0,1,0,.85.34.34,0,0,0,0,.1.49.49,0,0,0-.2.4.51.51,0,0,0,.32.47l15.23-14.07a.76.76,0,0,0,.05-.27.81.81,0,0,0-.81-.81.87.87,0,0,0-.39.1,1.16,1.16,0,0,0-1.12-.84,1.18,1.18,0,0,0-.62.18s0-.06,0-.09a1.45,1.45,0,0,0-1.44-1.44,1.51,1.51,0,0,0-.53.1.81.81,0,0,0-1.62.05.34.34,0,0,0,0,.1,1.18,1.18,0,0,0-1-.56l-.2,0a1.44,1.44,0,0,0-1.44-1.42l-.23,0a.82.82,0,0,0-.81-.74.84.84,0,0,0-.77.54h-.11a1.84,1.84,0,0,0-.47.07,1,1,0,0,0-.92-.63Zm-3.26,3.21a.59.59,0,0,0-.39,1,.8.8,0,0,0-.25.59.81.81,0,0,0,.82.81.81.81,0,0,0,.34-1.55.6.6,0,0,0,.08-.29.59.59,0,0,0-.59-.59" fill="#333"/><path d="M87.61,384.07l52-52-52-52-52,52Z" fill="red"/><path d="M87.61,375.82,43.85,332.05l43.76-43.76,43.77,43.76Z" fill="#fff"/><path d="M68.22,334.45c-1.61,0-2.59-.55-3-1.46H53.61v5.28h28.8V333H71.94a4.73,4.73,0,0,1-3.73,1.46" fill="#333"/><path d="M70.88,332.49c.47,0,1.14-.23,1.68-1.32a2.39,2.39,0,0,0,.18-.89,2.58,2.58,0,0,1,.08-.56,1.56,1.56,0,0,1,.26-.13,1.81,1.81,0,0,0,1-.79,1.63,1.63,0,0,0,.17-.75,4.39,4.39,0,0,0,0-.53,4.38,4.38,0,0,1,0-.51v-.18a3.45,3.45,0,0,1,1-1.39l-.73-.83a4.2,4.2,0,0,0-1.41,2.12,4.58,4.58,0,0,0,0,.93,1.23,1.23,0,0,1,0,.65,1.15,1.15,0,0,1-.44.27,1.47,1.47,0,0,0-.78.58,2.63,2.63,0,0,0-.22,1,2.6,2.6,0,0,1-.06.49,2.29,2.29,0,0,1-.3.46,3.33,3.33,0,0,1-.4.76v.59" fill="#333"/><path d="M69.43,331.79l.64.91a3.24,3.24,0,0,0,.81-.8,3.66,3.66,0,0,0,.39-.76,1.24,1.24,0,0,0,.06-.18,1.46,1.46,0,0,0,0-.86,1,1,0,0,1,0-.62,1.37,1.37,0,0,1,.42-.45,2.08,2.08,0,0,0,.64-.72,2,2,0,0,0,0-1.37,2.54,2.54,0,0,1-.12-.91l-1.09-.19a2.07,2.07,0,0,0,0,.35,4.27,4.27,0,0,0,.17,1,3.44,3.44,0,0,1,.11.56.13.13,0,0,1,0,.06,1.18,1.18,0,0,1-.32.32,2.2,2.2,0,0,0-.75.87,1.57,1.57,0,0,0-.13.65,2.57,2.57,0,0,0,.1.68l.06.27a2.21,2.21,0,0,1-.84,1.16" fill="#333"/><path d="M64.56,329.52a1.47,1.47,0,0,1,.15.39,1.54,1.54,0,0,1,.31.23,2.41,2.41,0,0,1,0,.74l0,.23a4.46,4.46,0,0,0,.91.68l-.42.84a8.34,8.34,0,0,0,.67.83l.82-.75a4.92,4.92,0,0,1-.89-1.24v0c0-.1,0-.28,0-.41a5.05,5.05,0,0,0,.06-.68,1.52,1.52,0,0,0-.1-.6,1.65,1.65,0,0,0-.76-.78c-.16-.1-.38-.24-.39-.33s0-.05,0-.07a1.53,1.53,0,0,1,.1-.42,3.6,3.6,0,0,0,.21-1.2,1.85,1.85,0,0,0,0-.23l-1.1.07a2.45,2.45,0,0,1-.16,1,2.37,2.37,0,0,0-.14,1v.05a1.7,1.7,0,0,1,.76.71" fill="#333"/><path d="M62.22,327.23a1.94,1.94,0,0,1,0,.55,1.53,1.53,0,0,0,.1,1.18,1.73,1.73,0,0,0,.88.78.94.94,0,0,1,.44.31.72.72,0,0,1,.06.48,1.41,1.41,0,0,0,.15.9,4.71,4.71,0,0,0,1.57,1.36l.08-.16.42-.83a4.28,4.28,0,0,1-.91-.69,1.26,1.26,0,0,1-.2-.24s0-.08,0-.24a2.1,2.1,0,0,0-.05-.72,1.3,1.3,0,0,0-.15-.38,1.7,1.7,0,0,0-.76-.71l-.15-.08c-.24-.11-.34-.17-.39-.28s-.07-.2,0-.45a3,3,0,0,0,.08-.88,3.42,3.42,0,0,0-1.09-1.84l-.34-.38-.86.71.38.42c.34.37.77.83.8,1.19" fill="#333"/><path d="M67.13,328c0,.85.21,2,1.21,2s1.26-1.29,1.26-1.82-.71-2.45-.88-4.24a.93.93,0,0,1-.56-.17c-.15,2-1,3.45-1,4.22" fill="#333"/><path d="M82.79,311.82c-2.19.35-12.16,2.14-13.11,2.33-1.42.27-1.75-1-2.4-1.32,0,0,1,5.61,1,6,.2,1.5-.83,2.27-.83,3.39a1.93,1.93,0,0,0,.69,1.5,1.12,1.12,0,0,0,.56.17h0c1,0,1.18-1,1.18-1.72a6.48,6.48,0,0,0-.55-2.08c0-.27.23-.6,1.11-.74s11.86-2,13.6-2.32,3-1.7,2.74-3.16-1.84-2.43-4-2.08m.75,4.09c-1.48.09-14.4,1.34-14.4,1.34l-.28-1.82L83.15,313c1.5-.26,2.57.34,2.57,1.29s-.7,1.57-2.17,1.66" fill="#333"/><path d="M106.59,323.19c-.3,1.55-.94,3-.94,3.44s.15,1.85,1.15,1.85,1.32-1.18,1.32-2c0-.67-.59-1.76-.84-3.34a1.12,1.12,0,0,1-.5.1h-.19" fill="#333"/><path d="M90.53,316.73l14.77,2.45c.5.08.92.41.92.54a3.27,3.27,0,0,0-.54,1.56c0,.68.11,1.77.9,1.92h.19a1.12,1.12,0,0,0,.5-.1,1.77,1.77,0,0,0,.84-1.69c0-1.58-.83-1.27-.63-2.77.06-.42.86-5.86.86-5.86-.65.3-.82,1.42-2.24,1.15-1-.19-12.11-2.24-14.29-2.59s-3.67.79-4,2.25a2.88,2.88,0,0,0,2.67,3.13m1.3-4.3c1.51.25,15,2.62,15,2.62l-.28,1.83s-14-1.23-15.48-1.32S89,315,89,314s1.18-1.85,2.87-1.57" fill="#333"/><path d="M111.49,324.93a.76.76,0,0,1-.07.43c-.17.36-.45.81-.87.91l.25,1.08a2.41,2.41,0,0,0,1.63-1.53,1.82,1.82,0,0,0,.17-.95.68.68,0,0,1,.14-.48c.1-.16.13-.17.26-.2a1.3,1.3,0,0,0,.89-.72A2,2,0,0,0,114,322a1.37,1.37,0,0,1,0-.52c0-.25.21-.44.54-.78a8.66,8.66,0,0,0,.6-.67l-.87-.68a5.89,5.89,0,0,1-.52.57,2.49,2.49,0,0,0-.84,1.38,2.43,2.43,0,0,0,0,.92.9.9,0,0,1,0,.71c-.08.14-.08.14-.2.17a1.39,1.39,0,0,0-.91.69,1.69,1.69,0,0,0-.31,1.13" fill="#333"/><path d="M109.6,326.81a2.4,2.4,0,0,0,.93-1.42,2.43,2.43,0,0,0,.1-1.11,1.46,1.46,0,0,1,0-.65c0-.14,0-.14.21-.23a1.43,1.43,0,0,0,.8-1,1.8,1.8,0,0,0-.15-1.32.92.92,0,0,1-.11-.66l-1.09-.2a2,2,0,0,0,.19,1.32.72.72,0,0,1,.09.57.4.4,0,0,1-.26.33,1.35,1.35,0,0,0-.75.92,2.51,2.51,0,0,0-.07,1.05,1.28,1.28,0,0,1,0,.66,1.4,1.4,0,0,1-.61.92l-.26.23.74.82.25-.22" fill="#333"/><path d="M101.37,323.11a1.55,1.55,0,0,0,.81,1c.27.16.36.23.39.4a.7.7,0,0,1,0,.47,1.38,1.38,0,0,0,0,.89,3.28,3.28,0,0,0,1.17,1.72l.78-.79c-.7-.7-.76-.78-.89-1.23a.28.28,0,0,1,0-.24,1.8,1.8,0,0,0,0-1.05,1.72,1.72,0,0,0-.9-1.12c-.22-.14-.29-.19-.31-.27a1,1,0,0,1,.1-.58,2.76,2.76,0,0,0,.19-1.29l-1.1.13a1.61,1.61,0,0,1-.14.79,2.1,2.1,0,0,0-.13,1.19" fill="#333"/><path d="M100.62,322.82a2.18,2.18,0,0,0-.12-.7,3.35,3.35,0,0,0-.84-1.39l-.31-.35-.85.71.35.39a2.26,2.26,0,0,1,.6,1,1.15,1.15,0,0,1,0,.66,1.86,1.86,0,0,0,.12,1.23,1.47,1.47,0,0,0,1,.86c.17.06.21.07.27.21a.54.54,0,0,1,.07.42,1.13,1.13,0,0,0,.06.77c.2.45.76,1.51,1.67,1.65l.16-1.1c-.22,0-.58-.47-.81-1v-.1a1.3,1.3,0,0,0,.05-.36,1.82,1.82,0,0,0-.19-.75,1.43,1.43,0,0,0-.9-.79c-.19-.07-.23-.08-.32-.27a.76.76,0,0,1-.07-.3,1.6,1.6,0,0,1,0-.27,3.25,3.25,0,0,0,.06-.51" fill="#333"/><path d="M107.88,329.29a4.18,4.18,0,0,1-4.82-.22l-.27-.25-.33.16a4.63,4.63,0,0,1-1.69.26c-.67,0-1.21,0-1.48.46a1.11,1.11,0,0,0,0,1.15l.13.21h2.43a1.76,1.76,0,0,1-1.55-.69l.45,0a6.46,6.46,0,0,0,1.78-.25,4.78,4.78,0,0,0,2.3.91,3.07,3.07,0,0,1,2.19-1v.83a4.34,4.34,0,0,0,1.24-.53,20.75,20.75,0,0,1,2,1.11,7.67,7.67,0,0,0,.91.51,19,19,0,0,0,3.9.37v-1.11a19.09,19.09,0,0,1-3.5-.3c-.09,0-.44-.25-.73-.42a15.35,15.35,0,0,0-2.47-1.32l-.29-.09-.23.19" fill="#333"/><path d="M101.89,331.06H97.75c-1.86,0-2.06,1.14-2.06,1.54a1.56,1.56,0,0,0,0,.4h1.68c-.49,0-.65-.19-.65-.4s.19-.43,1-.43h6.65a1.91,1.91,0,0,1,.43-1.11h-2.94" fill="#333"/><path d="M105.52,332.17h.16l3.32-.77-1.9-.34h0v.1s-1.39.06-1.55,1" fill="#333"/><path d="M95.1,333a1.73,1.73,0,0,0-1.79,1.62,1.76,1.76,0,0,0,1.84,1.65h.35c.08-.42.42-1,1.68-1.1h-2a.81.81,0,0,1-.73-.54.64.64,0,0,1,.68-.51h7.21V333H95.11" fill="#333"/><path d="M95.49,336.27a1.15,1.15,0,0,0,0,.24c0,.91.8,1.66,2.17,1.66h0a2.09,2.09,0,0,1,2-1.11h-2c-.69,0-1.07-.35-1.07-.54s.43-.24.85-.24h4.88v-1.11H97.17c-1.27.07-1.6.68-1.68,1.1" fill="#333"/><path d="M97.67,338.17a1,1,0,0,0-.06.35c0,.69.63,1.44,2,1.57,1,.08,5.36.22,6.16.22a22.83,22.83,0,0,0,4.84-.52,8.5,8.5,0,0,0,1.16-.46,6.56,6.56,0,0,1,3.27-.72V337.5a7.66,7.66,0,0,0-3.74.82,6.73,6.73,0,0,1-1,.4,22.19,22.19,0,0,1-4.53.48c-.74,0-5.09-.14-6.07-.22-.7-.06-1-.33-1-.46s.37-.35,1.15-.35h4.47l-1.07-1.11H99.65a2.09,2.09,0,0,0-2,1.11" fill="#333"/><path d="M104.87,331s0,0-.05.05a2,2,0,0,0-.42,1.11,1.28,1.28,0,0,0,0,.19c0,1,.54,2.84,4.18,3.3l.14-1.1c-1.2-.16-3.21-.64-3.21-2.2a1.23,1.23,0,0,1,0-.19c.16-1,1.53-1,1.55-1V330a3.07,3.07,0,0,0-2.19,1" fill="#333"/><rect x="19.56" y="521.34" width="252.09" height="126.21" fill="#fff" stroke="#e93333" stroke-miterlimit="10" stroke-width="11"/><path d="M160.66,546.14l-.94.82a3.25,3.25,0,0,0-2.28-.83c-2.86,0-3.95,3.36-3.95,6,0,2.05.86,2.9,2.5,2.9a4.21,4.21,0,0,0,2.09-.54l.48-3.28h-1.92V550h3.59l-.72,5.25a6.55,6.55,0,0,1-3.73,1.06c-2.37,0-3.88-1.46-3.88-4.34,0-3.17,1.65-7.07,5.53-7.07A4.34,4.34,0,0,1,160.66,546.14Z" fill="#333"/><path d="M161.94,556.1l1.55-11H165l-.65,4.61H169l.65-4.61h1.51l-1.55,11h-1.51l.72-5.17h-4.61l-.72,5.17Z" fill="#333"/><path d="M180.16,546.21l-.94.88a3,3,0,0,0-2.31-1c-1.24,0-2.25.64-2.25,1.79,0,.83.44,1.26,2.06,1.81s2.88,1.13,2.88,3c0,1.7-1.29,3.54-4.32,3.54a4.55,4.55,0,0,1-3.57-1.47l1-.9a3.33,3.33,0,0,0,2.64,1.12c1.64,0,2.72-.85,2.72-2.21,0-1-.51-1.39-2-1.92-1.87-.66-2.88-1.34-2.88-2.91s1.31-3.12,3.79-3.12A4.19,4.19,0,0,1,180.16,546.21Z" fill="#333"/><path d="M185.68,545.23c1.91,0,2.91,1.38,2.91,3.86,0,2.91-1,7.2-4.43,7.2-1.9,0-2.91-1.38-2.91-3.86C181.25,549.52,182.27,545.23,185.68,545.23Zm-.05,1.17c-2.11,0-2.89,3.66-2.89,6.3,0,1.73.52,2.42,1.49,2.42,2.11,0,2.89-3.68,2.89-6.31C187.12,547.09,186.59,546.4,185.63,546.4Z" fill="#333"/><path d="M197,548.64c0,3-.93,6.43-6.66,7.83l-.24-1.14c2.79-.77,4.69-2.07,5.22-4.5a3.19,3.19,0,0,1-2.56,1.38,2.63,2.63,0,0,1-2.59-2.9,3.8,3.8,0,0,1,3.76-4.08C195.94,545.23,197,546.57,197,548.64Zm-1.52.93a6.39,6.39,0,0,0,.07-1c0-1.6-.58-2.21-1.65-2.21-1.81,0-2.29,1.77-2.29,3s.57,1.68,1.44,1.68A3.06,3.06,0,0,0,195.44,549.57Z" fill="#333"/><path d="M161.57,573.59c0,2.5-1.61,4.4-4.76,4.4s-4.73-1.81-4.73-4.4v-8.35h2.65v8.23c0,1.67.64,2.5,2.08,2.5s2.11-.83,2.11-2.5v-8.23h2.65Z" fill="#333"/><path d="M176.78,570.75v7h-2.56v-6.52c0-1.1-.43-1.4-.93-1.4-.71,0-1.18.48-1.64,1.33v6.59h-2.56v-6.52c0-1.1-.43-1.4-.94-1.4-.7,0-1.19.48-1.65,1.33v6.59h-2.56v-9.55h2.23l.18,1.21a3.32,3.32,0,0,1,2.78-1.49,2.3,2.3,0,0,1,2.28,1.56,3.35,3.35,0,0,1,2.85-1.56C175.75,567.87,176.78,569,176.78,570.75Z" fill="#333"/><path d="M189.05,577.7h-3.11l-1.37-7.26-1.37,7.26h-3.08L178,568.15h2.58l1.17,7.66,1.58-7.66h2.56l1.42,7.66,1.3-7.66h2.45Z" fill="#333"/><path d="M200.5,573.7h-6c.18,1.84,1,2.38,2.27,2.38a3.9,3.9,0,0,0,2.32-.83l1.06,1.44a5.58,5.58,0,0,1-3.61,1.3c-3.07,0-4.67-2-4.67-5s1.55-5.11,4.34-5.11,4.3,1.8,4.3,4.84C200.55,573,200.52,573.43,200.5,573.7ZM198,572c0-1.44-.49-2.38-1.71-2.38-1,0-1.63.67-1.77,2.49H198Z" fill="#333"/><path d="M202.28,575.39v-11l2.56-.29v11.25c0,.41.14.63.52.63a1,1,0,0,0,.5-.11l.52,1.82a4.16,4.16,0,0,1-1.63.33A2.32,2.32,0,0,1,202.28,575.39Z" fill="#333"/><path d="M213.5,577.25A4.59,4.59,0,0,1,211,578c-2,0-3-1.16-3-3.28V570H206.6v-1.81H208v-2.08l2.56-.31v2.39h2.19l-.25,1.81h-1.94v4.69c0,.94.3,1.3.95,1.3a2.28,2.28,0,0,0,1.08-.32Z" fill="#333"/><path d="M213.51,571.05h5.58v2h-5.58Z" fill="#333"/><path d="M160,599.3h-2.21l-.13-1.28a3.22,3.22,0,0,1-2.89,1.57c-1.77,0-2.67-1.14-2.67-3v-6.87h2.56v6.54c0,1,.34,1.39,1,1.39a2.11,2.11,0,0,0,1.75-1.25v-6.68H160Z" fill="#333"/><path d="M170.44,592.35v6.95h-2.56v-6.52c0-1.1-.41-1.4-1-1.4s-1.32.48-1.86,1.33v6.59h-2.55v-9.55h2.23l.2,1.21a3.56,3.56,0,0,1,2.9-1.49A2.56,2.56,0,0,1,170.44,592.35Z" fill="#333"/><path d="M181,586V599.3h-2.25l-.15-1.17a3.19,3.19,0,0,1-2.73,1.46c-2.4,0-3.62-2-3.62-5.06s1.51-5.06,3.87-5.06a3.25,3.25,0,0,1,2.32.95v-4.75Zm-2.56,10.57v-4.27a2.07,2.07,0,0,0-1.65-.9c-1.12,0-1.88.93-1.88,3.17s.69,3.15,1.71,3.15A2.11,2.11,0,0,0,178.43,596.53Z" fill="#333"/><path d="M199.35,599.3h-3.44l-1.73-9.74-1.82,9.74H189l-2.16-12.46h2.65l1.42,10.41,1.89-10.41h2.79l1.82,10.41,1.6-10.41h2.51Z" fill="#333"/><path d="M210.53,597.86l-.54,1.69a2.32,2.32,0,0,1-2.2-1.39,3.26,3.26,0,0,1-2.86,1.43,2.86,2.86,0,0,1-3.1-3c0-2.09,1.58-3.22,4.39-3.22h1.1v-.47c0-1.19-.5-1.56-1.69-1.56a8.69,8.69,0,0,0-2.52.5l-.6-1.71a9.89,9.89,0,0,1,3.53-.7c2.65,0,3.8,1.17,3.8,3.33v3.85C209.84,597.43,210.08,597.7,210.53,597.86Zm-3.21-1.17v-1.82h-.83c-1.4,0-2.09.5-2.09,1.55a1.17,1.17,0,0,0,1.25,1.33A1.86,1.86,0,0,0,207.32,596.69Z" fill="#333"/><path d="M219,590.62l-1,1.46a4.38,4.38,0,0,0-2.38-.76c-.84,0-1.31.34-1.31.87s.32.81,2,1.29c1.91.52,3,1.32,3,3,0,2-1.86,3.1-4.13,3.1a5.66,5.66,0,0,1-3.89-1.39l1.26-1.41a4.21,4.21,0,0,0,2.56.94c.95,0,1.57-.4,1.57-1s-.34-1-2.11-1.44c-1.93-.54-2.83-1.5-2.83-2.94,0-1.62,1.48-2.84,3.78-2.84A5.43,5.43,0,0,1,219,590.62Z" fill="#333"/><path d="M227.46,590.62l-1,1.46a4.38,4.38,0,0,0-2.38-.76c-.84,0-1.31.34-1.31.87s.32.81,2,1.29c1.91.52,3,1.32,3,3,0,2-1.86,3.1-4.13,3.1a5.64,5.64,0,0,1-3.88-1.39l1.26-1.41a4.18,4.18,0,0,0,2.55.94c1,0,1.57-.4,1.57-1s-.34-1-2.11-1.44c-1.92-.54-2.82-1.5-2.82-2.94,0-1.62,1.47-2.84,3.78-2.84A5.43,5.43,0,0,1,227.46,590.62Z" fill="#333"/><path d="M237.44,595.3h-6c.18,1.84,1,2.38,2.27,2.38a3.86,3.86,0,0,0,2.32-.83l1.06,1.44a5.63,5.63,0,0,1-3.62,1.3c-3.06,0-4.66-2-4.66-5s1.55-5.11,4.34-5.11,4.3,1.8,4.3,4.84C237.49,594.63,237.45,595,237.44,595.3ZM235,593.59c0-1.44-.49-2.38-1.71-2.38-1,0-1.62.67-1.76,2.49H235Z" fill="#333"/><path d="M245.21,589.63l-.41,2.47a3.16,3.16,0,0,0-.87-.13c-1.17,0-1.73.88-2.05,2.45v4.88h-2.56v-9.55h2.24l.21,1.86a2.74,2.74,0,0,1,2.49-2.12A3.31,3.31,0,0,1,245.21,589.63Z" fill="#333"/><path d="M245.57,592.65h5.58v2h-5.58Z" fill="#333"/><path d="M160.74,611.88a7.85,7.85,0,0,1-2.76.36,2.5,2.5,0,0,1,1.77,2.45c0,1.85-1.5,3.2-3.93,3.2a4.28,4.28,0,0,1-1.11-.13.77.77,0,0,0-.36.63c0,.33.16.64,1.1.64h1.45c2.16,0,3.55,1.15,3.55,2.73,0,1.93-1.67,3.1-4.86,3.1-3.49,0-4.45-1.14-4.45-3h2.29c0,.9.39,1.29,2.21,1.29s2.24-.48,2.24-1.17-.49-1-1.5-1H155c-2,0-2.83-.87-2.83-1.87a2.19,2.19,0,0,1,1.12-1.79,2.85,2.85,0,0,1-1.7-2.72c0-2.1,1.68-3.45,4.07-3.45a7.59,7.59,0,0,0,4.47-1.16Zm-6.61,2.61a1.54,1.54,0,0,0,1.59,1.74c1,0,1.56-.61,1.56-1.78s-.52-1.67-1.58-1.67A1.53,1.53,0,0,0,154.13,614.49Z" fill="#333"/><path d="M169.88,616.9h-6c.18,1.84,1.05,2.38,2.27,2.38a3.82,3.82,0,0,0,2.32-.83l1.07,1.44a5.63,5.63,0,0,1-3.62,1.3c-3.06,0-4.67-2-4.67-5s1.55-5.11,4.34-5.11,4.31,1.8,4.31,4.84C169.94,616.23,169.9,616.63,169.88,616.9Zm-2.48-1.71c0-1.44-.49-2.38-1.71-2.38-1,0-1.62.67-1.77,2.49h3.48Z" fill="#333"/><path d="M174.69,610.47v.88H177l-.29,1.81h-2v7.74h-2.56v-7.74h-1.51v-1.81h1.51v-1c0-1.76,1.17-3.13,3.49-3.13a5.71,5.71,0,0,1,2.52.57l-.7,1.7a3.6,3.6,0,0,0-1.55-.36C175,609.18,174.69,609.57,174.69,610.47Z" fill="#333"/><path d="M185.79,619.46l-.54,1.69a2.29,2.29,0,0,1-2.19-1.39,3.26,3.26,0,0,1-2.87,1.43,2.86,2.86,0,0,1-3.09-3c0-2.09,1.58-3.22,4.39-3.22h1.1v-.47c0-1.19-.5-1.57-1.69-1.57a8.75,8.75,0,0,0-2.52.51l-.6-1.71a9.89,9.89,0,0,1,3.53-.7c2.65,0,3.8,1.17,3.8,3.33v3.85C185.11,619,185.34,619.29,185.79,619.46ZM180.68,608a1.35,1.35,0,1,1-1.35-1.33A1.32,1.32,0,0,1,180.68,608Zm1.91,10.32v-1.82h-.83c-1.4,0-2.09.5-2.09,1.55a1.17,1.17,0,0,0,1.25,1.33A1.86,1.86,0,0,0,182.59,618.29ZM184.77,608a1.34,1.34,0,0,1-1.37,1.33,1.33,1.33,0,1,1,0-2.66A1.34,1.34,0,0,1,184.77,608Z" fill="#333"/><path d="M195.64,614v6.95h-2.56v-6.52c0-1.1-.43-1.41-1.06-1.41s-1.29.49-1.83,1.32v6.61h-2.56V607.56l2.56-.27v5.16a3.42,3.42,0,0,1,2.77-1.38A2.56,2.56,0,0,1,195.64,614Z" fill="#333"/><path d="M203.87,611.23l-.42,2.47a3.09,3.09,0,0,0-.86-.13c-1.17,0-1.73.88-2.06,2.45v4.88H198v-9.55h2.23l.22,1.86a2.74,2.74,0,0,1,2.48-2.13A3.38,3.38,0,0,1,203.87,611.23Z" fill="#333"/><path d="M213,607.56V620.9h-2.25l-.15-1.17a3.2,3.2,0,0,1-2.74,1.46c-2.39,0-3.61-2-3.61-5.06s1.51-5.06,3.87-5.06a3.26,3.26,0,0,1,2.32.95v-4.75Zm-2.56,10.56v-4.26a2.07,2.07,0,0,0-1.66-.9c-1.11,0-1.87.93-1.87,3.17s.68,3.15,1.71,3.15A2.1,2.1,0,0,0,210.4,618.12Z" fill="#333"/><path d="M223.47,616.9h-6c.18,1.84,1,2.38,2.27,2.38a3.84,3.84,0,0,0,2.32-.83l1.06,1.44a5.59,5.59,0,0,1-3.62,1.3c-3.06,0-4.66-2-4.66-5s1.55-5.11,4.34-5.11,4.3,1.8,4.3,4.84C223.52,616.23,223.49,616.63,223.47,616.9ZM221,615.19c0-1.44-.48-2.38-1.71-2.38-1,0-1.62.67-1.76,2.49H221Z" fill="#333"/><path d="M233.37,614v6.95h-2.56v-6.52c0-1.1-.41-1.41-1-1.41s-1.32.49-1.86,1.34v6.59h-2.55v-9.55h2.23l.2,1.21a3.55,3.55,0,0,1,2.89-1.49A2.57,2.57,0,0,1,233.37,614Z" fill="#333"/><path d="M243.92,607.56V620.9h-2.25l-.15-1.17a3.2,3.2,0,0,1-2.73,1.46c-2.4,0-3.62-2-3.62-5.06s1.51-5.06,3.87-5.06a3.26,3.26,0,0,1,2.32.95v-4.75Zm-2.56,10.56v-4.26a2.07,2.07,0,0,0-1.66-.9c-1.11,0-1.87.93-1.87,3.17s.68,3.15,1.71,3.15A2.1,2.1,0,0,0,241.36,618.12Z" fill="#333"/><path d="M87.3,636.45l52-52-52-52-52,52Z" fill="red"/><path d="M87.3,628.2,43.54,584.43,87.3,540.67l43.76,43.76Z" fill="#fff"/><path d="M66.52,584.39h40.64" fill="#333" stroke="#333" stroke-miterlimit="3.94" stroke-width="0.72"/><path d="M101.06,591.73l4.77,3.44-4.54,2.18,6.1.55-1.64,2.18h3.37l.08,2.43-42.52-.24s7.11-2.1,8.28-1.24c1.56-.71,13-5.55,13-5.24M77,592l.24-12.34-6.18-3.36a2.84,2.84,0,0,0-2.26-.23c-.47.16-1.1.31-1.1.31s3.37-2.81,4-2.58,5,2.35,5,2.35S76.21,572.91,75,572l-5.71-4.54v-.86l6.18,3.76s.23-3.6-1-5.71-2.19-4-2.19-4l.4-.32,3,4.69,1-3.21.62-.15s-.78,4.53-.23,5.94,2.58,9.06,2.58,9.06l3.05-4.38a23.84,23.84,0,0,0-.08-3c-.16-1.25-.39-7-.39-7h.55l.86,6.33,4.92-5.7v.62s-4.84,6.1-4.61,7.43a5.27,5.27,0,0,1-.39,4c-.85,1.87-1.4,3.21-1.4,3.21S84.83,575,86,574.78c1.17-.07,2.73.08,3.83-.86s3.75-3.9,3.75-3.9l-4.14,6.4a4.77,4.77,0,0,0-2.74.94c-.78.86-4,4.53-4,4.53v8.44L88,593l-6.48.94L80,596.2l-2.11-1.8-5.87.54Z" fill="#333" stroke="#333" stroke-miterlimit="3.94" stroke-width="0.58"/><path d="M85.52,595.65C87,595,89.43,594,90.84,592s6.64-11,13.75-10.24a32.29,32.29,0,0,1-1.64,3l5.08-1.56s.07,6.72-9.54,11c-4.45,1.57-5.39,1.64-5.78,2.18s-2.18,3.29-2.18,3.29l-8-3.52a11.64,11.64,0,0,0,3-.46Z" fill="#fff" stroke="#333" stroke-miterlimit="3.94" stroke-width="0.72"/><ellipse cx="104.18" cy="587.08" rx="0.86" ry="0.74" fill="#333"/></g><g id="Wasserzeichen"><path d="M428.37,638.21a.83.83,0,0,0-.35.67,8.88,8.88,0,0,0,.43,3.25,2.39,2.39,0,0,0,.89,1.12,4.89,4.89,0,0,0,.89.52l.4.15.22.06-.52,2.75.61,0,.92-2.72,10.12-.58h.27l1.1,2.82.51-.11-.53-2.79.22-.06a3.09,3.09,0,0,0,.4-.15,4,4,0,0,0,.89-.52c.52-.39,1.42-1.4,1.42-3.63a10.37,10.37,0,0,0-.1-1.41,1.29,1.29,0,0,0-2.22-.35c-.34.72-.09,2-.29,3a1.88,1.88,0,0,1-1.61,1.58,45.17,45.17,0,0,1-5.16.47c-1.62.09-2.72.14-4.34.17h-.06a1.93,1.93,0,0,1-1.42-.5,2.31,2.31,0,0,1-.55-1.18,10.84,10.84,0,0,0-.47-2.41.89.89,0,0,0-.85-.4h0A1.52,1.52,0,0,0,428.37,638.21Z" fill="#fff" fill-rule="evenodd"/><path d="M442,632.36c-1.41,0-9.43.55-11.55.92s-2.1,2.37-1.76,4.09a2,2,0,0,1,.54-.08,1.38,1.38,0,0,1,1.32.71,6.35,6.35,0,0,1,.41,1.94,2.61,2.61,0,0,0,.5,1.55,1.38,1.38,0,0,0,1.06.35h0c1.61,0,2.71-.08,4.32-.17a43,43,0,0,0,5.1-.46c.69-.13.88-.49,1-1.18s-.09-2.1.32-3.08a1.71,1.71,0,0,1,1.31-.75C444.69,634.37,444.22,632.33,442,632.36Z" fill="#fff" fill-rule="evenodd"/><path d="M451.93,636.06c1,.06,1.38.45,1.45.65a1.52,1.52,0,0,1-.25.73,5.09,5.09,0,0,1-.75-.16,2,2,0,0,0-.8-.15c-.66,0-1.1.34-1.1.85,0,.27.13.52.52.83s1.15.81,1.64,1.22a2.11,2.11,0,0,1,1,1.77c0,1.52-1.22,2.28-2.72,2.28-1,0-1.87-.29-2-.7a1.47,1.47,0,0,1,.26-.81h.07a1,1,0,0,1,.43.13,3.22,3.22,0,0,0,1.24.26l.31,0a1,1,0,0,0,.95-1,1.32,1.32,0,0,0-.7-1.06c-.43-.31-1-.68-1.32-1l-.39-.34A2.1,2.1,0,0,1,449,638c0-1.26,1-2,2.47-2A3.2,3.2,0,0,1,451.93,636.06Z" fill="#fff"/><path d="M457.14,644.1c-2,0-3.15-1.19-3.15-4s1.32-4.07,3.19-4.07c2.06,0,3.1,1.36,3.1,4S458.94,644.1,457.14,644.1Zm0-1.06c.86,0,1.61-.75,1.61-3s-.64-2.94-1.61-2.94h0c-.87,0-1.63.8-1.63,2.92S456.21,643,457.17,643Z" fill="#fff"/><path d="M465.68,632.9a1.11,1.11,0,0,1-.08.36.84.84,0,0,1-.2.32,1,1,0,0,1-.32-.06,2.59,2.59,0,0,0-.65-.07c-.73,0-1.4.33-1.47,1.73,0,.34,0,.7,0,1.06h.88c.35,0,.71,0,.92,0-.05.76-.13.93-.35,1a.54.54,0,0,1-.18.06,12.36,12.36,0,0,1-1.29,0c0,1.84,0,4.47,0,6.22,0,.08,0,.26-.13.3a6.38,6.38,0,0,1-.93.07c-.13,0-.24,0-.35,0a2.12,2.12,0,0,1,0-.38c0-.65,0-1.32,0-2,0-1.34,0-2.74,0-4.2a2,2,0,0,1-1-.2c.07-.6.11-.68.38-.75l.63-.14a9.49,9.49,0,0,1,.07-1.23,2.63,2.63,0,0,1,2.81-2.68,1.76,1.76,0,0,1,1.22.31A.35.35,0,0,1,465.68,632.9Z" fill="#fff"/><path d="M465,637a.43.43,0,0,1,0-.17,4.17,4.17,0,0,1,2.41-.79,5.62,5.62,0,0,1,.57,0c1.2.08,1.59.88,1.59,2.26V639c0,1.12,0,2.42,0,3.28,0,0-.07.85.46.75,0,.23,0,.51,0,.61a1.18,1.18,0,0,1-.86.37,1.44,1.44,0,0,1-1-.59,2.42,2.42,0,0,1-.47.38,2.58,2.58,0,0,1-1.19.21,2,2,0,0,1-2-2.15,2.69,2.69,0,0,1,2.76-2.6,3.46,3.46,0,0,1,.45,0,2.76,2.76,0,0,1,.54.05v-.93c0-.73-.08-1.14-.78-1.14a5,5,0,0,0-1.71.42,1.08,1.08,0,0,1-.47.13,1.3,1.3,0,0,1-.25-.65A.5.5,0,0,1,465,637Zm3.23,4.43v-1.15a1.72,1.72,0,0,0-.33,0c-.19,0-.37,0-.53,0-.79.13-1.45.48-1.45,1.5,0,.83.35,1.12.86,1.16h.11a1.78,1.78,0,0,0,1.26-.51s0-.13.05-.23A5.57,5.57,0,0,0,468.19,641.41Z" fill="#fff"/><path d="M474.75,643a3.39,3.39,0,0,1,0,.45.58.58,0,0,1-.24.33,2.89,2.89,0,0,1-1.37.31c-1.51,0-1.79-1.42-1.79-2.74v-4a2.11,2.11,0,0,1-1-.16c0-.5,0-.44.15-.57s.73-.24,1-.36l.08-1.46c.11-.33.45-.61,1.22-.65,0,.74,0,1.43,0,2.1h2.1c-.05.81-.15,1-.38,1l-.39,0c-.42,0-.63,0-1.33,0,0,.75,0,1.51,0,2.21s0,1.35,0,1.89c.06.91.21,1.55.86,1.55a3.12,3.12,0,0,0,1.13-.33A3.48,3.48,0,0,1,474.75,643Z" fill="#fff"/><path d="M477.17,638.11l-.16,3c0,1.46.46,1.77,1.24,1.77a1.83,1.83,0,0,0,1.43-.57v-5.18a1.18,1.18,0,0,1,.18-.76c.19-.16.37-.15,1.25-.16,0,.88,0,1.92,0,3.17v2.77a3.41,3.41,0,0,0,.2,1.22,2.25,2.25,0,0,1-.66.37.26.26,0,0,1-.11,0c-.29,0-.44-.21-.5-.49a3.36,3.36,0,0,1-1.13.64,3.16,3.16,0,0,1-1,.18c-1.89-.09-2.26-1.05-2.29-2.77l.16-3.4a4.33,4.33,0,0,0-.23-1.44,2.54,2.54,0,0,1,.77-.45.4.4,0,0,1,.13,0,.61.61,0,0,1,.58.56A5.19,5.19,0,0,1,477.17,638.11Z" fill="#fff"/><path d="M486.34,643a3.39,3.39,0,0,1,0,.45.58.58,0,0,1-.24.33,2.92,2.92,0,0,1-1.37.31c-1.51,0-1.79-1.42-1.79-2.74v-4a2.11,2.11,0,0,1-1-.16c0-.5,0-.44.15-.57s.73-.24,1-.36l.08-1.46c.11-.33.45-.61,1.22-.65,0,.74,0,1.43,0,2.1h2.1c-.05.81-.15,1-.38,1l-.39,0c-.42,0-.63,0-1.33,0,0,.75,0,1.51,0,2.21s0,1.35,0,1.89c.06.91.21,1.55.86,1.55a3.18,3.18,0,0,0,1.13-.33A3.48,3.48,0,0,1,486.34,643Z" fill="#fff"/><path d="M489.85,644.1c-2,0-3.14-1.19-3.14-4S488,636,489.9,636c2.05,0,3.1,1.36,3.1,4S491.66,644.1,489.85,644.1Zm0-1.06c.86,0,1.61-.75,1.61-3s-.64-2.94-1.61-2.94h0c-.86,0-1.62.8-1.62,2.92S488.93,643,489.89,643Z" fill="#fff"/><path d="M495.34,637.91v5.2a1,1,0,0,1-.15.65c-.21.14-.4.16-1.28.16,0-.88,0-1.92,0-3.19l0-2.75a3.33,3.33,0,0,0-.22-1.22,2.56,2.56,0,0,1,.67-.38h.12c.29,0,.42.21.5.48a3.16,3.16,0,0,1,1.11-.63,1.82,1.82,0,0,1,.88-.13c.42,0,.65.18.7.41a1.94,1.94,0,0,1-.26.94.36.36,0,0,1-.15,0,2.72,2.72,0,0,1-.39,0,1.13,1.13,0,0,0-.3,0A1.69,1.69,0,0,0,495.34,637.91Z" fill="#fff"/><path d="M498.94,642.11c.73,0,.86.31.84.91s-.19,1-1,1-.84-.31-.84-1A.84.84,0,0,1,498.94,642.11Z" fill="#fff"/><path d="M505.33,637.47h-.08a2.45,2.45,0,0,1-.44-.09,2.5,2.5,0,0,0-1-.22.86.86,0,0,0-.23,0c-1,.08-1.76,1-1.76,2.93,0,2.34,1,2.83,2.08,2.83a3.29,3.29,0,0,0,1.4-.31,2,2,0,0,1,.1.46.94.94,0,0,1-.36.65,2.68,2.68,0,0,1-1.43.36c-1.76,0-3.26-.65-3.26-3.91a4.44,4.44,0,0,1,1.19-3.37,3.17,3.17,0,0,1,2.23-.8,2.15,2.15,0,0,1,1.75.66A1.85,1.85,0,0,1,505.33,637.47Z" fill="#fff"/><path d="M509,644.1c-2,0-3.14-1.19-3.14-4S507.14,636,509,636c2.05,0,3.1,1.36,3.1,4S510.77,644.1,509,644.1Zm0-1.06c.86,0,1.61-.75,1.61-3s-.64-2.94-1.61-2.94h0c-.86,0-1.62.8-1.62,2.92S508,643,509,643Z" fill="#fff"/><path d="M518.16,643.9a4,4,0,0,1-.57,0h-.67c0-.83,0-1.82,0-3v-2c0-1.27-.28-1.72-1.09-1.72a1.92,1.92,0,0,0-1.42.68v5.27a.89.89,0,0,1-.16.61c-.22.16-.39.16-1.26.16,0-.83,0-1.84,0-3.06V638a3.43,3.43,0,0,0-.2-1.23,2.51,2.51,0,0,1,.66-.37.26.26,0,0,1,.11,0c.31,0,.44.22.5.49a3.51,3.51,0,0,1,1.13-.63,2.91,2.91,0,0,1,1-.17,1.62,1.62,0,0,1,.3,0,1.63,1.63,0,0,1,1.43.81,3.63,3.63,0,0,1,1.17-.65,3.11,3.11,0,0,1,1-.16,1.72,1.72,0,0,1,.33,0c1.43.11,1.77,1.17,1.77,2.8v2.73c0,.82,0,1.55,0,2.13-.2.15-.43.2-1.34.2a1.18,1.18,0,0,1-.11-.52v-4.46c0-1.27-.26-1.73-1.09-1.73a1.9,1.9,0,0,0-1.39.69v5.74A.23.23,0,0,1,518.16,643.9Z" fill="#fff"/></g></svg>